<?xml version="1.0" encoding="utf-8"?>
<!-- Generator: Adobe Illustrator 25.0.1, SVG Export Plug-In . SVG Version: 6.00 Build 0)  -->
<svg version="1.0" id="Layer_1" xmlns="http://www.w3.org/2000/svg" xmlns:xlink="http://www.w3.org/1999/xlink" x="0px" y="0px"
	 viewBox="0 0 258 155" style="enable-background:new 0 0 258 155;" xml:space="preserve">
<style type="text/css">
	.st0{fill:#040404;}
	.st1{fill:#010101;}
	.st2{fill:#030202;}
	.st3{fill:#020101;}
	.st4{fill:#0C0C0C;}
	.st5{fill:#080808;}
	.st6{fill:#060606;}
	.st7{fill:#AA1D22;}
	.st8{fill:#B21E23;}
	.st9{fill:#B61F24;}
	.st10{fill:none;}
</style>
<path class="st0" d="M137.6,93.7c0-0.1-0.1-0.1-0.2-0.1c0,0,0,0,0,0c-0.6,0.2-0.5-0.2-0.5-0.5c0-0.9,0-1.8,0-2.7
	c0-0.3-0.1-0.4-0.4-0.4s-0.7,0.3-0.7-0.4c0-0.2-0.3,0-0.5-0.1h-0.4h-0.9v-0.1h1.3c0.2,0,0.4,0.1,0.2-0.2c-0.1-0.1,0-0.2,0-0.2
	c0,0,0,0,0.1,0c0.1-0.1,0.2,0,0.3,0.1c0.1,0.3,0.4,0.4,0.7,0.3c0.4,0,0.8,0,1.2,0c0.3,0,0.7,0,1,0c0.2,0,0.7,0.2,0.5-0.4
	c0-0.2,0.3-0.3,0.5-0.3c0.2,0,0.3,0.2,0.3,0.4c0,0.6,0.3,0.4,0.6,0.2h0.2c0.1,0.3,0.3,0.2,0.5,0.2h6.8c0.3,0,0.6,0,0.8,0.2
	c-0.2,0-0.4,0.1-0.4,0.3c0,0.4,0.2,0.9-0.6,0.7c0.1,0.3,0.3,0.1,0.4,0.3v0.2c-1.6,0.5-3.2,0.6-4.9,0.5c-0.2,0-0.5,0-0.7,0
	c-0.5-0.1-0.8-0.5-0.7-1c0.1,0,0.2-0.1,0.2-0.3c0-0.1-0.1-0.1-0.2-0.1v-0.1c0-0.2,0.1-0.4-0.2-0.5c-0.1,0-0.2,0-0.2,0.1
	c0,0.2,0.1,0.4,0.3,0.4c0,0,0.1,0,0.1,0v0.1l-0.1,0.1c-0.1,0.1-0.2,0.2-0.2,0.4c-0.1,0.9-0.1,0.9-1,0.8c0.4-0.2,0-0.6,0.1-0.8
	c0,0-0.1-0.1-0.1-0.1c-0.1,0.1-0.3,0.2-0.2,0.4c0.2,0.5-0.1,0.6-0.5,0.6s-0.8-0.2-1,0.1s0,0.7-0.1,1c-0.1,0-0.1,0-0.1,0.1
	c0,0.1,0.1,0.1,0.1,0.1c0.6-0.1,1.2-0.1,1.8,0V93c-0.2,0.2-0.5,0-0.6,0.2c-0.7,0-1.4,0.1-2,0.4c-0.1,0-0.2,0.1-0.1,0.2
	s0.2,0,0.2-0.1c0.6,0,1.2-0.1,1.8-0.3c0.5,0,1-0.4,1.4,0.1c0.1,0.1,0.2,0,0.2-0.1c0.3-0.7,0.9-0.4,1.4-0.6c0.1,0,0.2,0,0.3,0.1
	c0,0.1,0,0.2-0.1,0.2s-0.2,0.3-0.1,0.6c0.2-0.3,0.6-0.3,0.4-0.8c-0.1-0.1,0.1-0.2,0.2-0.2c1.2,0.2,2.4-0.1,3.6,0.1
	c0.3,0,0.6,0.4,0.7,0.7s-0.2,0.3-0.4,0.4s-0.1,0.3-0.1,0.4c0,0.9,0,1.7,0,2.6c0,0.4-0.1,0.5-0.5,0.5c-0.6,0-1.3,0.1-2,0.1
	c0.7,0.3,1.3,0.1,1.9,0.1c0.3,0,0.6,0,0.6,0.5s-0.1,0.6-0.6,0.6c-0.9,0-1.8,0-2.7,0c-0.4,0-0.8-0.2-1.2,0c0,0-0.1,0-0.2-0.1
	c-0.3-0.4-0.3-0.4-0.5,0.1c0-0.4-0.5-0.3-0.7-0.7c-0.1,0.2-0.6-0.2-0.6,0.3c0,0.3-0.1,0.4-0.4,0.3c-0.5,0-0.9,0-1.4,0
	c-0.5,0-0.5,0.1-0.4,0.5c0,0.2,0,0.4,0,0.6c0.1,0.2,0,0.4,0.5,0.3c0.7-0.1,1.3-0.1,2,0c0.3,0,0.1,0.3,0.2,0.4
	c0.2-0.2,0.4-0.4,0.7-0.4c0.2,0,0.4-0.1,0.6,0s0.1,0.4,0.1,0.6l0,0c-0.2,0.1-0.5-0.1-0.8,0.1c-0.1,0.1-0.1-0.2-0.2-0.3
	c-0.2,0.2-0.3,0.5-0.3,0.8c0,0.3-0.3,0.4-0.4,0.3c-0.4-0.2-0.6,0.1-0.9,0.2c0.5,0.1,1.1,0.1,1.6,0.1c1.3-0.1,2.5,0,3.8,0
	c0.9,0,1.8,0,2.7,0.1c0.1,0,0.2,0,0.3,0.2c0,0.2-0.2,0.2-0.3,0.2s-0.3,0-0.4,0s-0.2,0-0.1,0.2c0.1,0.2-0.1,0.3-0.2,0.4
	c-0.1,0.1-0.2,0.1-0.3-0.1s0.1-0.5-0.2-0.5s-0.6-0.1-0.9,0.1c0,0,0,0.1-0.1,0.1c-0.1,0.1,0-0.1,0-0.1s0-0.1,0-0.1
	c-0.3-0.2-0.8-0.2-1.1,0c-0.1,0.1-0.2,0.2-0.3,0.1c-0.3-0.4-0.7-0.2-1-0.2c-1.5,0-3,0-4.6,0c-0.2,0-0.5-0.1-0.4,0.3
	s-0.1,0.2-0.3,0.2c-0.5,0-1,0-1.5,0c-0.2,0-0.4-0.1-0.4-0.3c0-1.1,0-2.2,0-3.4c0-0.2,0.1-0.5,0.3-0.6c0.3-0.2,0.2-0.4,0-0.6
	c-0.2,0.1,0,0.7-0.5,0.3c0.1,0.5-0.2,1.1-0.8,1.2c-0.1,0-0.2,0-0.3,0c-0.2-0.1-0.5-0.1-0.7,0l0.7,0.1c0,0.1,0.2,0.2,0.1,0.4
	l-0.1,0.1c-0.1,0.2-0.3,0.3-0.5,0.3c-0.4,0.2-0.6,0.4-0.3,0.8c0.2,0.3,0,0.3-0.1,0.4c-0.6,0.3-1.2,0.4-1.8,0.6c-0.2,0-0.3,0-0.4-0.2
	l-0.4-1.2c-0.1-0.2,0-0.3,0.2-0.3c0.5-0.1,1.1-0.2,1.5-0.5c0.1,0.1,0.1,0.2,0.1,0.3s0,0.2,0.2,0.1s0.1,0.3,0.2,0.3s0-0.2,0.1-0.3
	c0.4-0.2,0.5-0.4,0.1-0.7c0,0,0.1-0.4,0.1-0.5c0.5-1,0.5-2.2,0.2-3.2c-0.1-0.5-0.4-0.8-0.9-1c-0.2-0.1-0.3-0.5-0.6-0.3
	c-0.1,0.1-0.3,0.1-0.2,0.3c0,0.4-0.2,0.4-0.5,0.5l-0.5,0.1c-0.6,0.2-0.6,0.2-0.6-0.4c0-0.1-0.1-0.3-0.1-0.2c-0.3,0.2-0.7,0.1-1,0.5
	s-0.5,0.6-0.7,1c-0.6-0.1-1.3-0.2-1.9-0.2c-0.7,0-1.3,0-2,0c0,0.3,0.3,0.2,0.3,0.4s-0.3,0.1-0.3,0.3c0.4,0,0.6,0.3,0.6,0.7
	c0,0,0,0,0,0c0,0.3-0.4,0.2-0.7,0.2c-0.8,0-1.6,0-2.4,0.1c-0.2,0-0.4,0.1-0.4,0.3s0.3,0.3,0.4,0.2c1.1-0.1,2.3-0.1,3.4,0
	c0.2,0,0.5-0.1,0.4,0.2s0.2,0.8-0.5,0.8s-1.3,0-1.9,0H123c-0.1,0-0.2,0-0.2,0.1s0.1,0.2,0.2,0.2s0.3,0,0.4,0
	c0.4,0.1,0.8-0.2,1.2-0.1c1,0.2,2.1,0,3.1,0.1c0.3,0,0.3,0,0.2-0.3c-0.1-0.8-0.5-1.6-0.2-2.5c0-0.1,0-0.2-0.1-0.2
	c-0.2,0.4-0.9,0.3-1.4-0.1c1.1-0.3,2.2-0.4,3.3-0.2c-0.2,0.7-0.2,1.4-0.1,2.2c0.1,0.3,0.2,0.5,0.5,0.6s0.5-0.2,0.6-0.5
	c0.4-0.8,0.6-1.7,0.8-2.6c0.1-0.4,0.3-0.4,0.5-0.3c0.2,0.1,0.3,0.1,0.5,0c0.4-0.2,0.6-0.1,0.5,0.3c-0.3,1.7-0.5,3.5-1.9,4.7
	c-0.1,0.1,0.2,0.7-0.4,0.4c-0.3-0.2-0.6,0-0.9,0c-0.3-0.1-0.6-0.1-0.9-0.2c-0.1,0-0.1-0.1-0.1-0.2c0-0.2-0.2-0.4-0.4-0.4
	c-0.2,0-0.3,0.1-0.3,0.3s-0.2,0.2-0.3,0.2c-1.3,0-2.7,0-4,0c-0.8,0-0.8,0-0.9,0.7c0,0.1,0,0.3-0.1,0.4c-0.3,0.6,0,0.5,0.4,0.5
	c3.3-0.2,6.6,0,9.8,0h0.2l0,0l-4.6,0.1l-9.2,0.1H119c-0.2,0-0.5,0-0.5-0.2s0.2-0.2,0.5-0.3c-0.3,0-0.5-0.1-0.6-0.4s-0.1-0.5,0.3-0.5
	s0.9,0,1.4,0c0.2,0,0.5,0,0.4-0.3s-0.3-0.2-0.5-0.2c-1.5,0-2.9,0-4.4-0.1c-0.4,0-0.4,0.3-0.4,0.5c0,0.4-0.2,0.5-0.6,0.5
	c-0.8,0-1.7,0-2.6,0.1c-0.2,0-0.3,0-0.5,0.2c0.4,0.2,0.9,0.3,1.3,0.2c0.6,0,1.2,0,1.8,0c0.2,0,0.3,0,0.3,0.3
	c-1.8,0.1-3.6,0.1-5.3-0.1c-0.2,0-0.3,0-0.3-0.3c0-0.1-0.1-0.2-0.2-0.2c-0.2,0-0.2,0.1-0.1,0.3s0,0.2-0.2,0.2s-0.3,0-0.3-0.2
	c-0.2-0.4-0.5-0.6-0.8-0.8c0,0-0.1,0-0.1-0.1c-0.2-0.3-0.5-0.4-0.9-0.5c-0.2,0-0.3,0.1-0.2,0.2c0.2,0.3-0.2,0.3-0.3,0.5
	s-0.3,0-0.4-0.1s-0.3-0.5-0.6-0.5s-0.3,0.4-0.5,0.6c-0.4,0.4-0.8,0.8-1.3,1.1c-0.2-0.8-0.4-1.5-0.6-2.3c-0.1-0.2,0-0.4,0.2-0.5
	c0,0,0,0,0,0c0.1-0.1,0.2-0.2,0.4-0.2c0.4-0.1,0.7-0.6,0.6-1c-0.1-0.4,0.1-0.6,0.6-0.5c0.4,0.1,0.8,0.1,1.3,0.2
	c0.2,0,0.2,0.1,0.2,0.3c0.1,0.6,0.5,1,1,1.3c-0.7,0.4-1.5,0.2-2.1,0.6c0.4,0.1,0.8,0,1.2-0.1c0.8-0.3,1.7-0.4,2.6-0.3
	c0.2,0,0.4,0,0.2,0.3c-0.1,0.1,0.1,0.3,0.3,0.3s0.6,0,0.7-0.3s0.3-0.3,0.6-0.2c-0.3,0.3-0.1,0.6-0.1,0.9c-0.2,0.1-0.3-0.1-0.5-0.1
	c-0.6,0-1.2-0.3-1.7,0.2c0.3,0.2,0.6,0.1,0.9,0.3s0.7,0.4,0.8-0.3c0.3,0.4,0.9,0.5,1.3,0.1c0.1-0.1,0.2-0.2,0.3-0.4
	c0.1-0.1,0.2-0.2,0-0.3s-0.1-0.1-0.2-0.1c-0.1,0-0.2,0.1-0.2,0.2c0,0,0,0,0,0c0.1,0.5-0.2,0.2-0.4,0.2c-0.1-0.5,0.3-0.9,0.8-1
	c0,0,0,0,0.1,0c1.2,0,2.4,0,3.7,0c0.2,0,0.4,0,0.4-0.3s0.3-0.2,0.4-0.2h4c0.1,0,0.2,0,0.3,0c0.2,0,0.3,0,0.3-0.2s-0.2-0.2-0.3-0.2
	c-1.1,0-2.2,0-3.3,0c-0.5,0-0.5-0.2-0.6-0.6s0.2-0.4,0.5-0.4c1.2-0.1,2.4-0.1,3.7,0c0.5,0.2,1,0.2,1.5-0.1c-0.5-0.1-1,0.1-1.5,0
	c0-0.3-0.1-0.5-0.5-0.5c-1,0-2,0-3.1,0c-0.6,0-0.5-0.4-0.6-0.7s0.3-0.3,0.5-0.3c0.2,0,0.4,0,0.6,0c0.2,0,0.4,0,0.3-0.3
	s-0.1-0.3-0.3-0.3c-0.6,0-1.1,0-1.7,0c-0.4,0-0.5-0.2-0.4-0.5s-0.2-0.7,0.4-0.7h1.7c0.1,0,0.3,0,0.3-0.2s-0.2-0.2-0.3-0.3
	c-0.2,0-0.3,0-0.5,0c-0.5,0-1,0-1.5-0.2c-0.4-0.2-0.9-0.1-1.2,0.3c-0.2,0.2-0.6,0.1-0.9,0.1c-0.3,0-0.5,0-0.8,0
	c-0.2,0-0.4,0.1-0.4,0.3s0.1,0.4,0.4,0.4h1.4c0.3,0,0.4,0,0.4,0.4c0,1,0,1-1,1c-0.2,0-0.5,0-0.8,0s-0.4,0.1-0.4,0.4s0.2,0.4,0.4,0.4
	c0.6,0,1.2,0,1.8,0c0.3,0,0.4,0.1,0.4,0.4c0,0.5,0,1,0,1.4c0,0.3-0.1,0.4-0.4,0.3c-0.9,0-1.8,0-2.8-0.1c-0.3,0-0.4,0-0.3-0.4
	c0.1-0.4,0.1-0.7,0-1.1c-0.3,0.4-0.5,0.8-0.5,1.2c0,0.3-0.3,0.3-0.4,0.2s-0.4-0.1-0.7-0.1c-1,0.1-2,0.2-3,0.1
	c-0.5,0-0.2-0.5-0.3-0.8s0.1-0.4,0.3-0.3c1,0.1,2.1,0,3.1-0.3c-0.5-0.1-1-0.1-1.6,0c-0.6,0.1-1.2,0-1.7-0.3
	c-0.1-0.1-0.2-0.2-0.2-0.4c0-0.8,0-1.5,0-2.3c0-0.2,0-0.5-0.4-0.3s-0.2-0.3-0.5-0.3s-0.1,0.3-0.1,0.5c0,0.8,0,1.6,0,2.4
	c0,0.2,0,0.4-0.3,0.4s-0.7,0.1-1,0.1c-0.7,0-0.7,0-0.7-0.6c0-0.1,0-0.3,0-0.4c0-0.4-0.1-0.5-0.5-0.5s-0.6-0.1-0.6-0.6
	c0.1-0.4,0.1-0.9,0-1.3c-0.1-0.3,0.1-0.4,0.4-0.4h2.1c0.1,0,0.2,0,0.3-0.1s-0.1-0.2-0.1-0.3c-0.3-0.3-0.2-0.5,0.1-0.8
	c0.4-0.4,0.8-0.9,1.1-1.3c0.1-0.2,0.2-0.3,0.4-0.4c0.2-0.1,0.5-0.2,0.2-0.4c0,0,0-0.2,0.1-0.2c0.3-0.4,0.4-0.9,0.6-1.4
	c0.1-0.3,0.2-0.4,0.6-0.3c0.4,0.1,0.8,0.2,1.2,0.2c0.3,0,0.4,0.2,0.2,0.4c-0.1,0.1-0.1,0.2-0.1,0.4c0,0.2-0.4,0.4,0,0.6
	s0.7,0.2,0.9-0.2c0.2-0.3,0.3-0.7,0.4-1c0.1-0.3,0.2-0.4,0.5-0.3c0.4,0.1,0.9,0.1,1.3,0.2c0.3,0,0.4,0.2,0.2,0.5
	c-0.4,0.9-0.4,0.9,0.6,0.9c0.3,0,0.6,0,0.9,0s0.5-0.1,0.4,0.3s-0.3,0.2-0.5,0.2l-2,0.1c-0.1,0-0.1,0-0.2,0.1
	c0.1,0.2,0.3,0.1,0.5,0.1c0.6-0.1,1.2-0.1,1.8-0.1c0.3,0,0.3,0.1,0.3,0.4c0.1,1,0,1.1-1,1c-0.4,0-0.8,0-1.2,0
	c-0.3,0-0.4,0.1-0.4,0.4s0.1,0.3,0.4,0.3c0.4,0,0.9,0,1.3,0s0.5,0.1,0.5,0.4s0,0.6,0.4,0.4s1,0.3,0.9-0.5c0-0.4,0.1-0.4,0.4-0.4
	s0.8-0.2,1.1,0.3c0,0.1,0.4,0.1,0.6-0.1s1.2-0.1,1.6,0c0.5,0.2,0.6,0.7,0.9,0.9c0.1-0.1,0.1-0.2,0-0.2c-0.2-0.2-0.2-0.5-0.1-0.8
	c0.2-0.2,0.5-0.2,0.8-0.2s0.6,0.1,0.6,0.6c0,0.8,0,0.8-0.8,0.8c-0.3,0-0.6,0-0.9,0s-0.3,0-0.3,0.2s0.2,0.2,0.3,0.2h2.4
	c0.2,0,0.4,0,0.2-0.2c-0.4-0.4-0.1-0.5,0.2-0.6c0.1,0,0.2,0,0.2-0.2c-0.1-0.1-0.3-0.1-0.5-0.1c-0.4,0-0.5-0.2-0.4-0.5s0.2-0.4,0-0.7
	c-0.1-0.1,0-0.3,0.2-0.3c0.5,0,0.3-0.2,0.1-0.3s-0.1-0.2-0.2-0.2c-0.4-0.4-0.7-0.7,0-1.1c0.3-0.2,0.3-0.7,0.3-1.1s0-0.4,0.3-0.4h6.6
	v0.2c-0.8,0.1-1.6,0.1-2.4,0.2c-0.4,0-0.5,0.1-0.4,0.5s-0.1,0.4-0.4,0.4c-0.6-0.1-1.2,0-1.8,0.3c-0.1,0.1-0.2,0.1-0.2,0.1
	c-0.1,0.5-0.4,1-0.7,1.4c-0.1,0.2,0.1,0.2,0.3,0.2h3.2c0.2,0,0.4,0,0.5,0.2s0.3-0.2,0.6,0c-0.2,0.1,0.2,0.6-0.4,0.6
	c-0.1,0-0.1,0.1-0.1,0.2c0,0.5-0.3,1-0.8,1.2c-0.1,0.1-0.3,0.2-0.3,0.3s0.3,0.1,0.4,0.1h0.2c1,0.2,1,0.2,1.6-0.6
	c0.4-0.6,0.9-1,1.6-1.3c0.3-0.1,0.6-0.3,0.8-0.5c0.1-0.1,0.3-0.3,0.4,0c0,0,0.1,0,0.1,0c0.6-0.6,1.1,0.1,1.6,0.1
	c0.6,0,1.2,0.2,1.7,0.6c0.2,0.1,0.4,0.2,0.4,0.4c-0.5,0.2-1.1,0-1.6,0.2c0.3,0.3,0.7,0.4,1,0.2c0.3-0.1,0.7-0.1,1,0
	c0.2,0,0.3,0.2,0.4,0.4s-0.2,0.2-0.3,0.3c0.7-0.1,0.7,0.4,0.8,0.9c-0.2,0-0.1-0.3-0.3-0.2s-0.1,0.3,0,0.4s0.1,0.4,0.3,0.4
	s0.2-0.2,0.2-0.3c0.1-0.5,0.2-1,0.1-1.4c0-0.3,0-0.4,0.3-0.4c1.1,0.3,2.1-0.3,3.2-0.3c0.1,0,0.3-0.1,0.3-0.2c0-0.1,0.2-0.2,0-0.3
	c-0.1-0.1-0.2-0.1-0.2,0c-0.4,0.3-0.9,0.4-1.4,0.3c-0.3,0-0.6,0.2-0.9,0.2c-0.2,0-0.4,0-0.6-0.1L137.6,93.7z M139,95.9
	c-0.2,0.7,0.3,0.6,0.7,0.6c0.4,0.1,0.9,0.1,1.3,0c0.3-0.1,0.3,0.5,0.6,0.2s0.6-0.1,1-0.1c0.6,0,1.1,0,1.6,0c1.2,0,1.2,0,1.2-1.2
	c0-0.3-0.1-0.5-0.5-0.5h-5.1c-0.9,0-1.6,0.7-1.7,1.6C138.4,96.3,138.5,95.8,139,95.9L139,95.9z M121.8,95.2c0.3,0.9-0.2,0.8-0.6,0.8
	s-0.7,0-1,0s-0.5,0-0.5,0.3s0.3,0.3,0.5,0.3h0.3c1.5,0,3.1-0.1,4.6-0.2c0.1,0,0.2,0,0.3-0.1s0-0.2-0.1-0.2c-0.4-0.1-0.7-0.4-1.2-0.3
	l-1.4,0.5c-0.2,0.1-0.4,0-0.4-0.2C122.3,95.8,122.1,95.5,121.8,95.2z M109.8,93.2h0.4c0.2,0,0.4,0,0.4-0.3s-0.1-0.4-0.4-0.4h-0.9
	c-0.2,0-0.3,0.1-0.3,0.3c0,0,0,0.1,0,0.1c0,0.2,0.1,0.4,0.3,0.3L109.8,93.2z M109.8,97.4h0.3c0.2,0,0.5,0.1,0.5-0.3
	s-0.3-0.4-0.5-0.4s-0.5,0-0.8,0S109,96.8,109,97s0,0.4,0.3,0.4S109.6,97.4,109.8,97.4L109.8,97.4z M109.8,94.6c-0.2,0-0.4,0-0.6,0
	c-0.2,0-0.3,0.1-0.3,0.3s0,0.4,0.3,0.4c0.4,0,0.8,0,1.2,0c0.3,0,0.2-0.3,0.2-0.4s-0.1-0.2-0.3-0.2L109.8,94.6z M124.6,93.6
	c-0.2,0-0.5-0.1-0.8,0.1c0,0.1,0,0.1,0.1,0.2c0.3,0.3,0.6,0.3,1,0.2c0.1,0,0.2,0,0.2-0.1c0.1-0.1,0.4-0.1,0.4-0.3s-0.3-0.1-0.5-0.1
	S124.8,93.6,124.6,93.6z M112,91.2v-0.1c-0.6-0.2-1.2-0.3-1.9-0.2c-0.2,0-0.4,0-0.4,0.2s0.2,0.2,0.3,0.2H112z M108.2,90.7
	c-0.1,0-0.1,0-0.2,0c-0.1,0-0.3,0-0.3,0.2s0.2,0.2,0.3,0.2c0.4,0,0.7,0,1.1,0c0.1,0,0.2,0,0.3-0.1c0,0,0,0,0-0.1
	c0-0.1-0.1-0.2-0.2-0.2C108.9,90.8,108.6,90.8,108.2,90.7L108.2,90.7z M137.4,96.1c-0.5,0.3-0.1,0.7-0.2,1c0,0,0.1,0.1,0.1,0.1
	s0.1-0.1,0.1-0.2C137.5,96.7,137.5,96.4,137.4,96.1L137.4,96.1z M137.1,97.5c-0.1-0.1-0.1-0.2-0.2-0.3c-0.1-0.2-0.1-0.3-0.3-0.2
	c-0.2,0.1-0.1,0.3,0,0.4C136.7,97.5,136.9,97.7,137.1,97.5L137.1,97.5z M142.5,93.9c0-0.2,0.1-0.3-0.1-0.4c-0.2,0-0.3,0.2-0.3,0.4
	c0,0.2,0,0.3,0.2,0.4S142.5,94,142.5,93.9L142.5,93.9z M141.8,93.6c-0.2-0.2-0.4,0.1-0.5-0.2c0-0.1-0.1-0.1-0.2,0c0,0,0,0,0,0
	c-0.1,0.1-0.1,0.2,0,0.2C141.4,94.2,141.5,93.7,141.8,93.6L141.8,93.6z M135.6,98.8c-0.1-0.2-0.1-0.4-0.4-0.5
	c-0.1,0-0.2,0.1-0.1,0.2c0.1,0.1,0.2,0.5,0.4,0.5C135.6,99,135.7,98.9,135.6,98.8L135.6,98.8z M141,96.9c-0.2,0.1-0.1,0.3-0.2,0.4
	c0,0.1,0.1,0.2,0.1,0.2c0,0,0,0,0.1,0c0.2,0,0.2-0.2,0.2-0.4S141.2,96.9,141,96.9L141,96.9z M147,90.5c0.2,0.2,0.5,0.2,0.8,0.2
	C147.6,90.5,147.3,90.5,147,90.5L147,90.5z M141,101.3c0.2-0.2,0.4-0.2,0.3-0.5c0-0.1-0.1-0.1-0.2-0.1c0,0,0,0,0,0
	C141,100.9,141,101.1,141,101.3L141,101.3z M141.4,90.3c0,0.1-0.1,0.1-0.1,0.1c0,0-0.1,0.2,0.1,0.2S141.4,90.5,141.4,90.3
	L141.4,90.3z M146.6,90.6C146.6,90.6,146.7,90.6,146.6,90.6C146.7,90.6,146.7,90.6,146.6,90.6L146.6,90.6L146.6,90.6z M139.7,89.1
	L139.7,89.1C139.6,89.1,139.6,89.1,139.7,89.1C139.6,89.2,139.7,89.2,139.7,89.1L139.7,89.1z"/>
<path class="st1" d="M37.5,56.2c0-0.2,0.2-0.2,0.3-0.3l5.3-3.9c0.2-0.2,0.5-0.2,0.8-0.1c3.8,2,7.7,4,11.5,5.9
	c0.2,0.1,0.4,0.3,0.4,0.6c0,0.1,0,0.3,0,0.4c0,6.4,0,12.8,0,19.1c0,0.3,0.1,0.6,0.4,0.7c0.6,0.3,1.1,0.6,1.7,0.9L54.2,82
	c-0.1,0.1-0.3,0.1-0.5,0l-3.6-1.8c-0.3-0.1-0.2-0.2,0-0.4c0.5-0.3,1-0.7,1.5-1c0.2-0.1,0.3-0.3,0.3-0.5c0-2.8,0-5.6,0-8.5
	c0-0.3-0.1-0.4-0.4-0.4c-1.4,0-2.7,0-4,0c-0.4,0-0.4,0.2-0.4,0.5c0,3.9,0,7.8,0,11.7c0,1.1,0,2.3,0,3.4c0,0.8-0.3,1.5-0.9,2
	c-0.8,0.7-1.8,1.2-2.9,1.5c-0.1,0.1-0.3,0.1-0.4,0l-4.8-2.7c0,0,0,0-0.1-0.1l1.4,0.1c1,0.1,2-0.1,2.8-0.6c0.6-0.3,0.9-0.9,0.9-1.5
	c0-9.1,0-18.1,0-27.2c0.1-0.3-0.2-0.6-0.5-0.7c-1.4-0.5-2.9-0.5-4.2,0.1C38.1,56.1,37.8,56.1,37.5,56.2
	C37.6,56.2,37.5,56.2,37.5,56.2z M47.1,58c0,0,0,0.1-0.1,0.2c0,2.9,0,5.8,0,8.8c0,0.3,0.1,0.3,0.3,0.3c1.4,0,2.8,0,4.2,0
	c0.4,0,0.4-0.1,0.4-0.4c0-1.6,0-3.2,0-4.8c0-0.4,0-0.7,0-1.1c0.1-0.3,0-0.4-0.2-0.5c-1-0.6-2.1-1.1-3.2-1.7
	C48,58.5,47.5,58.3,47.1,58z M53.1,75.6c0.1,0.1,0.1,0.3,0,0.4c-0.3,0.4,0,0.7,0.3,0.8c0.3,0.2,0.4-0.2,0.5-0.4
	c0.1-0.4,0.4-0.6,0.8-0.5c0.1,0,0.1,0,0.2,0.1c0.1,0.1,0.2,0.3,0.3,0.2c0.1-0.1,0.3-0.2,0.3-0.4c0-0.3,0-0.5,0-0.8
	c0-0.2-0.4-0.3-0.1-0.6s0.2-0.3,0.1-0.4s-0.3-0.1-0.4-0.1c-0.3,0-0.5,0.1-0.7,0.3c-0.3,0.4-0.8,0.7-1.3,0.7
	c-0.2,0.1-0.5,0.1-0.7,0.3c-0.1,0-0.2,0.2-0.1,0.3c0,0,0,0,0,0c0,0.2,0.7,0.1,0.3,0.5c0,0,0.2,0.1,0.2,0
	C52.9,75.8,53,75.7,53.1,75.6z M56.1,79.1c-0.2-0.3-0.7-0.3-0.7-0.8s-0.2-0.4-0.4-0.4c-0.9,0.1-1.7,0-2.6-0.1c-0.1,0-0.3,0-0.3,0.2
	c0,0.6,0,0.8,0.7,0.8c0.5-0.1,1,0,1.5,0.1C54.9,79.1,55.5,79.1,56.1,79.1z"/>
<path class="st2" d="M71.5,82.3c0.2,0.2,0,0.3-0.1,0.4c-1.8,1.4-3.6,2.8-5.4,4.2c-0.2,0.2-0.4,0.1-0.7,0c-1.7-0.8-3.5-1.5-5.2-2.1
	c-0.8-0.3-1.6-0.5-2.4-0.4c0.1-0.3,0.4-0.5,0.7-0.5c0.9-0.3,1.2-0.9,1.2-1.9c-0.1-4,0-8,0-12c0-0.4-0.1-0.6-0.5-0.5s-1.1,0-1.6,0
	c-0.3,0-0.5-0.2-0.3-0.4c0.3-0.5,0.6-0.9,1-1.3c0.2-0.3,0.6-0.4,1-0.4c0.4,0.1,0.4-0.1,0.4-0.4c0-0.9,0-1.9,0-2.8
	c0-0.6,0.2-1.2,0.7-1.6c0.9-0.7,1.9-1.3,2.9-1.8c0.4-0.2,0.3,0.2,0.3,0.4c0,1.9,0,3.8,0,5.7c0,0.1,0,0.2,0,0.3s0.1,0.3,0.3,0.3
	c2,0,4,0,6,0c0.4,0,0.3-0.2,0.3-0.4c0-1.8,0-3.6,0-5.3c0-0.7,0.3-1.4,0.9-1.8c0.8-0.6,1.7-1.1,2.6-1.6c0.4-0.2,0.4,0,0.4,0.3
	c0,2.7,0,5.4,0,8.2c0,0.5,0.2,0.7,0.7,0.6c1,0,2,0,3,0c0.1,0,0.3,0,0.4,0.1c0.1,0.1,0,0.3-0.1,0.4l-0.1,0.1
	c-1.1,1.6-1.1,1.6-3.2,1.6c-0.7,0-0.7,0-0.7,0.7c0,2.6,0,5.3,0,7.9c0,0.4,0.2,0.7,0.5,0.8c0.5,0.2,1,0.6,1.6,0.9l-3.8,2.5
	c-0.1,0.1-0.3,0.1-0.5,0c-1.2-0.6-2.4-1.2-3.6-1.8c-0.3-0.2-0.3-0.3,0-0.4c0.5-0.3,1-0.7,1.5-1c0.2-0.1,0.3-0.3,0.3-0.6
	c0-2.9,0-5.7,0-8.6c0-0.3-0.1-0.4-0.4-0.4c-1.9,0-3.8,0-5.7,0c-0.3,0-0.4,0.1-0.4,0.4v11.6c0,0.2,0.1,0.3,0.2,0.4
	C66.1,83.3,69,83.6,71.5,82.3L71.5,82.3L71.5,82.3z M61.7,79.9C61.7,79.9,61.7,79.8,61.7,79.9L61.7,79.9c0,0.5-0.3,0.4-0.6,0.5
	s-0.3,0-0.3,0.2c0,0.2,0.2,0.2,0.3,0.2c0.7,0.3,1.5,0.1,2-0.5c0.2-0.3,0.2-0.7,0-1.1c-0.1-0.2-0.5-0.1-0.7-0.1
	c-0.5,0.1-0.2,0.5-0.2,0.8l0,0L61.7,79.9z M63.2,74.2c0-0.2,0.1-0.7-0.4-0.5c-0.8,0.2-1.7,0.3-2.5,0.4c-0.5,0.1-0.3,0.4-0.3,0.6
	s0.3,0.2,0.4,0.2c0.6-0.1,1.3-0.1,1.9-0.1C62.9,74.8,63.2,74.7,63.2,74.2z M71.2,73.7c0.5-0.2,1-0.3,1.5-0.1
	c0.4,0.1,0.6-0.2,0.9-0.3c0.1,0,0.1-0.5-0.2-0.4c-0.5,0.2-0.9-0.2-1.3-0.1c-0.1,0-0.3,0-0.3,0.1c-0.2,0.3-0.4,0.3-0.7,0.1
	s-0.4-0.2-0.6,0c-0.1,0.2-0.1,0.4,0,0.6c0.3,0.2,0,0.4,0,0.6h1.7C72,74.1,71.8,74,71.6,74C71.3,74,71.5,73.7,71.2,73.7L71.2,73.7z
	 M60,73.9c0.5-0.3,1.3,0,1.7-0.7c0,0,0.1,0,0.2,0c0.6,0.1,0.9-0.4,1.2-0.6c0.1-0.1,0.1-0.3,0-0.4c-0.1-0.2-0.2,0-0.3,0
	c-0.7,0.5-1.5,0.7-2.3,0.7C60,73.1,59.9,73.2,60,73.9z M73.1,80.4c-0.9-0.2-1.6-0.5-2.3,0.1c0.6,0.5,1.3,0.1,2,0.2
	c-0.2,0.2-0.2,0.3,0,0.5s0.3,0,0.4-0.1c0.4-0.2,0.7-0.4,0.4-0.8c0-0.1,0-0.2,0-0.2c0.1-0.3-0.1-0.2-0.2-0.2
	C72.8,79.8,72.8,79.9,73.1,80.4L73.1,80.4z M61.6,79.7c0-0.2-0.2-0.4,0-0.5c0.1-0.1,0.1-0.2,0-0.3c0,0,0,0,0,0
	c-0.2-0.1-0.9,0.1-0.9,0.3c0,0.3-0.1,0.5-0.3,0.6c-0.1,0.1-0.2,0.2-0.1,0.4c0,0,0,0.1,0.1,0.1c0.1,0.1,0.3,0,0.4-0.1c0,0,0,0,0-0.1
	C60.8,79.5,61.2,79.6,61.6,79.7L61.6,79.7z M61.7,77.1c-0.5,0.1-0.9,0.1-1.4,0.2c-0.1,0-0.4,0-0.4,0.2c0,0.2,0.3,0.1,0.4,0.1
	c0.1,0,0.3,0,0.4,0C61.4,77.8,61.6,77.5,61.7,77.1L61.7,77.1z M60.2,78.6c0.2-0.2,0.5-0.2,0.8-0.3c0.1,0,0.4,0,0.3-0.2
	s-0.2-0.4-0.4-0.2c-0.2,0.1-0.4,0.2-0.7,0.2c-0.2,0-0.2,0.2-0.2,0.4S60,78.6,60.2,78.6L60.2,78.6z M72,77.7c0,0.1,0,0.3,0,0.4
	c0.1,0.2,0.2,0.2,0.4,0.3s0.2,0,0.2-0.1s0-0.3-0.2-0.3C72.2,77.9,72.1,77.8,72,77.7z M73.1,77.5c-0.1,0-0.3,0-0.2,0.2
	s0.3,0.3,0.5,0.3s0.2-0.1,0.2-0.2C73.4,77.5,73.2,77.5,73.1,77.5L73.1,77.5z M63.2,77.7c-0.3-0.3-0.5-0.3-0.7,0.1
	C62.8,78,63,77.5,63.2,77.7L63.2,77.7z M69.2,80.3c0.1-0.1-0.1-0.2,0-0.3c0-0.1,0-0.2,0-0.2c0,0,0,0-0.1,0c-0.1,0-0.2,0.1-0.2,0.2
	C68.9,80.3,69.1,80.3,69.2,80.3L69.2,80.3z"/>
<path class="st3" d="M149.5,61.4c-0.1-0.2,0-0.4,0.1-0.6l2.8-6.1c0.1-0.2,0.3-0.4,0.6-0.4c3-0.1,5.9-0.2,8.9-0.1
	c1.9,0,3.8-0.1,5.6-0.3c1.4-0.2,2.6-0.9,3.5-2l0.6-0.8c0.1,0.2,0,0.3,0,0.5c-1,2-1.9,4.1-2.9,6.1c-0.1,0.3-0.4,0.4-0.7,0.4
	c-1.9,0-3.9,0.1-5.8,0.2c-0.3,0-0.4,0.1-0.4,0.4c0,7.9,0,15.8,0,23.6c0,0.2,0,0.4,0.2,0.5c1.5,1.1,3.5,1.6,5.3,1.3
	c0.4-0.1,0.8-0.2,1.1-0.3l0.1,0.1l-1.9,1.6c-0.9,0.7-1.8,1.4-2.6,2.2c-0.2,0.2-0.5,0.3-0.8,0.1c-2-0.9-4-1.7-6.1-2.3
	c-0.4-0.1-0.8,0-1.3-0.2c0.6-0.3,1.1-0.6,1.7-0.9c0.2-0.1,0.4-0.3,0.4-0.6c0-8.3,0-16.7,0-25c0-0.3-0.1-0.5-0.4-0.5
	c-1.2,0.1-2.5,0-3.7,0.1c-1.3,0.1-2.6,0.8-3.4,1.8C150,60.8,149.8,61.1,149.5,61.4z M159.9,56.9L159.9,56.9L159.9,56.9
	c0-0.4-0.4-0.3-0.5-0.5s-0.2-0.2-0.3-0.1s-0.2,0.2-0.1,0.4s0.1,0.3,0.3,0.2S159.7,56.9,159.9,56.9z M160.5,63.3l0.7,0.1
	c0.1,0,0.2,0,0.3-0.1c0,0,0-0.1,0-0.1c0-0.4,0-0.8,0-1.2c0-0.3-0.4-0.2-0.6-0.2s-0.2,0.1-0.1,0.3s-0.1,0.3-0.3,0.3
	c-0.6,0.1-1.2,0.1-1.9,0.2c-0.1,0-0.2,0-0.2,0.2s0.1,0.2,0.2,0.2c0.7,0,1.4,0.4,2-0.2c0.2-0.2,0.4-0.1,0.6,0c0.1,0,0.1,0.1,0.1,0.2
	c0,0,0,0,0,0c-0.1,0.2-0.3,0.2-0.4,0.2C160.6,63.2,160.6,63.2,160.5,63.3z M162.8,56.3c-0.9-0.2-1.8-0.2-2.7,0l0.2,0.2
	c0,0,0.1,0,0.1,0.1c-0.4,0.3-0.3,0.3-0.2,0.5s0.3,0,0.5,0c0.2-0.1,0.4-0.1,0.6,0c0.2,0.1,0.6,0.1,0.7,0S162.5,56.6,162.8,56.3
	L162.8,56.3z M159.6,69.1c-0.3-0.3,0-0.6-0.3-0.8h0.2c0.1,0,0.4,0.1,0.4-0.2c0-0.2-0.1-0.4-0.3-0.4c0,0,0,0,0,0
	c-0.4-0.1-0.7-0.1-1.1,0l0.4,0.6c-0.8-0.4-0.7,0-0.7,0.4c0,0.2,0,0.3,0,0.5s-0.1,0.3,0.1,0.3s0.3,0,0.3-0.2c0-0.5,0.2-0.3,0.5-0.3
	C159.3,69.2,159.4,69.2,159.6,69.1L159.6,69.1z M158.3,72.3c0,0,0,0.1,0,0.1c0,0.4,0,0.8,0,1.2c0,0.2,0,0.3,0.2,0.4s0.4-0.1,0.4-0.3
	C159.2,73.1,159,72.6,158.3,72.3L158.3,72.3z M160.2,68.3c0.1,0.5,0.5,0.6,0.9,0.6c0.1,0,0.3,0.1,0.3-0.1s0-0.3-0.2-0.3
	C160.9,68.3,160.6,68.2,160.2,68.3L160.2,68.3z M160.5,67.8c0.2,0,0.3-0.1,0.3-0.3s0-0.4-0.3-0.4s-0.4,0-0.4,0.2
	S160.3,67.8,160.5,67.8L160.5,67.8z M158.5,65.8c0.5-0.1,1,0.2,1.5,0.2C159.3,65.5,159.3,65.5,158.5,65.8L158.5,65.8z M165.7,57.1
	c0.4,0.2,0.9,0.1,1.2-0.3C166.5,56.9,166,56.6,165.7,57.1L165.7,57.1z M159.5,62c-0.3-0.3-0.6,0-0.9-0.1c-0.1,0-0.3-0.1-0.3,0.1
	c0,0.1,0.1,0.2,0.3,0.2c0,0,0,0,0,0C158.9,62.1,159.2,62.1,159.5,62L159.5,62z M169.1,55.8v-0.1l-0.8-0.2c-0.1,0-0.2,0-0.2,0.1
	c0,0,0,0,0,0c0,0.1,0.1,0.1,0.2,0.1L169.1,55.8z M164.4,57.3c0.4,0.1,0.8,0.1,1.1-0.1C165.2,57.1,164.8,57.1,164.4,57.3L164.4,57.3z
	 M160,72.9c0-0.1-0.1-0.2-0.2-0.2c0,0-0.1,0-0.1,0c-0.1,0-0.3,0.1-0.3,0.2s0.1,0.2,0.3,0.2S160,73.1,160,72.9L160,72.9z M161.1,65.8
	c-0.4,0-0.7-0.4-1.2-0.2C160.4,65.6,160.7,66,161.1,65.8L161.1,65.8z M163.6,56.3c-0.2-0.1-0.4-0.3-0.6-0.2s-0.1,0.2,0,0.2
	c0.1,0.2,0.3,0.2,0.5,0.1C163.6,56.4,163.6,56.3,163.6,56.3L163.6,56.3z M168.5,56.3c-0.1,0-0.2,0-0.2,0.2s0.1,0.3,0.3,0.2
	s0.3-0.1,0.3-0.2S168.7,56.3,168.5,56.3L168.5,56.3z M164.6,56.4c-0.1,0-0.2,0-0.2,0.1s0.2,0.3,0.4,0.3s0.2-0.1,0.2-0.2
	S164.8,56.3,164.6,56.4L164.6,56.4z M159.1,74.5c-0.1,0-0.3,0-0.2,0.2s0.1,0.2,0.2,0.2s0.2-0.1,0.2-0.2S159.2,74.5,159.1,74.5z"/>
<path class="st3" d="M111.7,64.5c1.2-0.8,2.3-1.6,3.3-2.4c0.3-0.2,0.4-0.2,0.7,0c1.7,1.2,3.4,2.2,5.2,3.2l0.3,0.2
	c0.2,0.1,0.2,0.2,0,0.4c-1.1,0.7-2.2,1.5-3.3,2.1s-2.1,1.2-3.1,1.8c0.1,0.2,0.2,0.1,0.4,0.1c1.2,0,2.3,0,3.5,0
	c0.4,0,0.5,0.1,0.5,0.5c0,2.1,0,4.1,0,6.2c0,1.8,0,3.6,0,5.3c0,0.5,0.3,1.1,0.8,1.2c0.9,0.4,2,0.5,3,0.3c0,0.2-0.1,0.2-0.2,0.3
	c-1.1,0.8-2.2,1.7-3.2,2.5c-0.2,0.2-0.4,0.2-0.6,0.1c-0.9-0.2-1.7-0.6-2.5-1.2c-0.8-0.5-1.2-1.4-1.2-2.3c0-3.2,0-6.4,0-9.6
	c0-0.3-0.1-0.5-0.4-0.4c-0.9,0-1.8,0-2.7,0c-0.4,0-0.5,0.1-0.5,0.5c0,1.8,0.1,3.7,0,5.5c-0.1,0.6,0.3,1.2,0.8,1.3
	c1,0.4,0.9,0.5,0,1.1s-1.8,1.2-2.8,1.8c-0.2,0.2-0.4,0.2-0.7,0.1c-1.2-0.6-2.3-1.2-3.5-1.7c-0.3-0.2-0.3-0.2,0-0.4
	c0.6-0.4,1.2-0.8,1.8-1.2c0.3-0.2,0.5-0.5,0.4-0.8c0-6.5,0-13,0-19.5c0-0.9,0.4-1.7,1.2-2.2c0.7-0.5,1.5-0.9,2.3-1.3
	c0.4-0.2,0.5-0.1,0.5,0.3C111.7,58.9,111.7,61.7,111.7,64.5z M111,71.7c-0.1-0.1-0.2-0.1-0.2-0.2c-0.1-0.1-0.2-0.2-0.1-0.3
	s0.2-0.1,0.4-0.1s0.2,0.2,0.1,0.3s0.1,0.2,0.2,0.3c0.1,0.1,0.2,0.3,0.2,0.4c0,0.2,0,0.5,0.3,0.5s0.6,0.2,0.6-0.4
	c0-0.1,0.1-0.1,0.2-0.1c0,0,0,0,0,0c0.6,0,1.1-0.1,1.7-0.2c1,0.1,2,0.2,3,0.2c0.3-0.1,0.6,0,0.7,0.3c-0.4,0.2-1-0.2-1.5,0.3
	c0.5,0,0.9,0,1.3,0c1.2-0.1,1.2-0.1,1.2-1.3c0-0.1,0-0.3,0-0.4c0.1-0.4-0.1-0.6-0.5-0.5c-1.6,0-3.1,0-4.7,0c-0.4,0-0.2-0.2-0.2-0.3
	c-0.6,0.1-1.1,0.3-1.6,0.5c-0.2,0.1-0.4,0.5-0.5-0.1c0-0.2-0.3-0.1-0.4-0.1c-0.5,0.2-1.1,0.2-1.7,0c-0.4-0.1-0.7,0.3-1.1,0.6
	c-0.1,0.1-0.1,0.6,0,0.8s0.3,0.1,0.4,0.1s0.1,0,0.1,0C109.5,72.5,110.4,72.4,111,71.7C111,71.7,111,71.7,111,71.7z M116.4,67.5
	l-3.8-1.8c-0.4-0.1-0.9,0.2-1,0.6c0,0,0,0,0,0c0,1.3,0,2.5,0,3.9L116.4,67.5z M115.7,75.3c0,0.1,0,0.2,0,0.3c0,0.1,0.1,0.3,0.2,0.3
	c0.2,0.1,0.2-0.2,0.2-0.2c0.3-0.1,0.6-0.2,0.5-0.6c0,0,0.1,0,0.1,0c0.3,0.3,0.4-0.1,0.6-0.2c0.6-0.2,0.8-0.2,1.2,0.3
	c0.1,0.1,0.2,0.2,0.3,0.2s0.1-0.2,0.1-0.3c-0.1-0.4-0.2-0.8-0.5-1.1c-0.1-0.1-0.2-0.2-0.3,0c-0.3,0.4-0.9,0.4-1.3,0.1
	c0,0,0,0-0.1-0.1c-0.2-0.5-0.4-0.2-0.6,0s-0.1,0.4-0.1,0.6s0.1,0.3,0,0.3C115.5,74.8,115.7,75.1,115.7,75.3L115.7,75.3z M108.2,75.5
	L108.2,75.5c0,0.3,0,0.5,0,0.8s0.2,0.3,0.4,0.3s0.3-0.2,0.2-0.4c-0.1-0.2-0.2-0.3-0.3-0.4c-0.1-0.1-0.2-0.2,0-0.3s0.1-0.2,0.3-0.1
	s0.6-0.5,0.5-0.6s-0.2-0.6-0.6-0.5s-0.6,0.2-0.5,0.6C108.2,75.1,108.2,75.3,108.2,75.5z M117,78.2c0.3-0.2,0.7-0.1,0.9-0.4
	s0.2-0.2,0.2-0.4s-0.3-0.1-0.4-0.1s-0.3,0-0.4-0.2s-0.1-0.3-0.3-0.2s-0.3,0.4-0.2,0.5C117.2,77.6,117,77.9,117,78.2z M116.7,75.6
	c0.3,0.3,0.3,0.7,0.7,0.9c0.2,0.1,0.4,0.1,0.4-0.2s0.2-0.5-0.1-0.6C117.5,75.5,117.1,75.5,116.7,75.6z M111.1,75.3
	c-0.3,0-0.7,0.1-1,0.2c-0.2,0.1-0.4,0.1-0.3,0.4c0.1,0.2,0.3,0.3,0.5,0.2c0.3-0.1,0.5-0.2,0.8-0.2c0.1,0,0.2-0.1,0.2-0.3
	c0,0,0,0,0-0.1C111.4,75.3,111.2,75.3,111.1,75.3z M110.3,74.2c-0.6-0.5-0.6-0.5-0.9,0.2C109.8,74.4,110.1,74.4,110.3,74.2z
	 M118.8,77.5c-0.1-0.2-0.2-0.3-0.4-0.3c-0.3,0-0.2,0.2-0.2,0.4s0,0.2,0.2,0.2S118.8,77.7,118.8,77.5z"/>
<path class="st2" d="M220.5,78.7l-2.5,1.8c-0.9,0.7-1.9,1.3-2.8,2c-0.2,0.2-0.5,0.2-0.8,0c-1.2-0.7-2.5-1.4-3.8-1.9
	c-0.3-0.2-0.7-0.2-1.1-0.2c-0.1,0-0.3,0-0.3-0.1s0.1-0.2,0.2-0.2c0.4-0.3,0.9-0.6,1.3-0.9c0.2-0.1,0.4-0.4,0.3-0.6
	c0-4.2,0-8.4,0-12.6c0-0.2,0-0.4-0.3-0.5c-1.3-0.4-2.6-0.8-4-1.2v0.5c0,4.3,0,8.6,0,12.9c0,0.3,0.1,0.6,0.4,0.7
	c0.5,0.2,0.9,0.5,1.4,0.7c0.2,0.1,0.4,0.2,0,0.4c-1.1,0.7-2.3,1.5-3.4,2.2c-0.1,0.1-0.3,0.1-0.4,0.1l-3.8-1.9c0,0-0.1-0.1-0.1-0.2
	c0.6-0.4,1.1-0.8,1.7-1.2c0.2-0.1,0.4-0.4,0.3-0.7c0-4.2,0-8.3,0-12.5c0-0.2-0.1-0.3-0.2-0.4c-0.7-0.3-1.4-0.7-2.1-1
	c-0.3-0.2-0.3-0.2,0-0.5c1.1-0.8,2.3-1.5,3.4-2.3c0.2-0.1,0.4-0.1,0.6,0c0.9,0.5,1.8,1,2.6,1.4c0.2,0.2,0.5,0.1,0.7-0.1
	c0.7-0.6,1.5-1.2,2.3-1.8c0.1-0.1,0.2-0.2,0.4-0.1c1.9,0.9,3.8,1.6,5.8,2.3c0.6,0.2,0.6,0.2,0.2,0.7s-0.9,1-1.4,1.5
	c-0.1,0.1-0.2,0.3-0.2,0.6c0,4.2,0,8.3,0,12.5c0,0.2,0.1,0.5,0.4,0.5c1.2,0.5,2.6,0.5,3.9,0.1C219.7,78.7,220.1,78.7,220.5,78.7z
	 M211.6,61.9c-0.4,0-0.9,0-1.3-0.1c-0.1,0-0.3-0.1-0.4,0.1s0,0.3,0.1,0.4s0.4,0.4,0.7,0.1s0.4-0.2,0.5,0.1c0.1,0.2,0.4,0.4,0.6,0.4
	c0.1,0,0.2,0,0.2-0.1c0.1-0.1,0-0.2-0.1-0.2c-0.1-0.1-0.1-0.1-0.2-0.2c0.7,0.2,0-0.4,0.3-0.5c0.1,0,0-0.1-0.1-0.1l-1.2-0.5
	c-0.2-0.1-0.2,0-0.3,0.2C210.9,61.6,211.2,61.7,211.6,61.9L211.6,61.9z M206.7,68.9c0-0.8,0-1.5,0-2.2s-0.3-0.8-0.9-0.9
	c-0.1,0-0.1,0-0.2,0c-0.6,0-1.2,0.1-1.8,0.1c-0.2,0-0.4,0.2-0.4,0.4c0,0,0,0,0,0.1c0,0.5,0,1,0,1.4c0,0.4,0.3,0.8,0.6,0.9
	c0.5,0.2,1,0.5,1.6,0.1c0.1,0,0.1,0,0.2,0C206.1,68.9,206.4,68.8,206.7,68.9L206.7,68.9z M214.4,68.2c0.1-0.1,0.4,0,0.4-0.2
	s-0.2-0.3-0.3-0.4c-0.2-0.1-0.4-0.2-0.6-0.2c-0.5,0.1-1,0.1-1.4,0c-0.2,0-0.4,0-0.6,0.1c-0.3,0-0.4,0.2-0.3,0.4c0,0.6,0,1.1,0,1.7
	c-0.1,0.2,0.1,0.4,0.3,0.5c0,0,0,0,0,0c0.4,0.2,0.8,0,1.3,0s1,0,1.5,0c-0.7-0.4-1.5-0.6-2.2-0.6c0.3-0.3,0.6-0.4,0.9-0.2
	c0.5,0.2,0.9-0.2,1.4,0c0,0,0.1-0.1,0.1-0.2C214.9,68.7,214.8,68.4,214.4,68.2C214.5,68.2,214.4,68.2,214.4,68.2L214.4,68.2z
	 M211.5,65.5c0.6-0.1,0.7,0.1,0.6,0.5s0.2,0.9,0.8,0.9c0.1,0,0.3,0,0.4,0.1c0.1,0,0.3,0.1,0.3,0c0-0.1,0-0.2,0-0.3
	c0-0.2-0.2-0.1-0.3-0.1c-0.2,0.1-0.5,0.1-0.7,0c0-0.1,0.1-0.2,0.2-0.3c1.1,0.2,0.4-0.6,0.3-0.8c-0.1-0.3-0.3-0.5-0.6-0.5
	C212.4,65.4,211.9,65.2,211.5,65.5z M206,70.5c0.2,0,0.4,0,0.4-0.2s0-0.2-0.1-0.2c-0.5-0.1-1-0.2-1.5-0.3c-0.2,0-0.3,0.1-0.3,0.3
	c0,0.2,0.2,0.2,0.3,0.2L206,70.5z M214,66.8c0.4,0.2,0.6,0.4,0.8,0.1s-0.1-0.5-0.5-0.7C214.6,66.7,214.3,66.8,214,66.8z M214.9,63
	c-0.3-0.2-0.6-0.3-0.9-0.3c-0.1,0-0.2,0.1-0.2,0.2c0,0.1,0.1,0.1,0.2,0.2C214.3,63.1,214.6,63.1,214.9,63L214.9,63z M204.8,64.4
	c0.2,0.1,0.2-0.1,0.2-0.2c0-0.1-0.1-0.3-0.3-0.3c0,0,0,0,0,0c-0.1,0-0.3,0.1-0.3,0.2S204.6,64.3,204.8,64.4L204.8,64.4z M213.1,63.4
	c0.1,0.2,0.2,0.4,0.5,0.4c0.1,0,0.1-0.1,0.1-0.2C213.5,63.5,213.3,63.4,213.1,63.4C213.1,63.5,213.1,63.5,213.1,63.4L213.1,63.4z
	 M204.4,69.8c0-0.1,0-0.2-0.1-0.2c-0.1,0-0.2,0.1-0.3,0.3c0,0.1,0.1,0.2,0.2,0.2C204.4,70.1,204.4,69.9,204.4,69.8L204.4,69.8z"/>
<path class="st2" d="M76.5,79.7c0.5-0.2,0.9-0.5,1.4-0.7c0.3-0.1,0.4-0.3,0.4-0.6c0-1.5,0-3.1,0-4.6c0-0.6,0.2-1.2,0.8-1.5
	c1.6-1.2,3.2-2.2,4.9-3.3c0.2-0.1,0.4-0.1,0.5,0l2.5,1c0.3,0.1,0.4,0.1,0.4-0.2c0-0.9,0-1.8,0-2.7c0-0.2,0-0.3-0.2-0.4
	c-2-0.7-3.9-1.5-6.1-1.5c-0.6,0-1.3,0.1-1.9,0.2c0-0.2,0.1-0.2,0.2-0.3c1.5-1,3-2.1,4.5-3.1c0.2-0.2,0.5-0.2,0.7-0.1
	c1.7,0.7,3.5,1.2,5.3,1.5c0.3,0,0.6,0.1,0.9,0.1c0.4,0,0.5,0.2,0.5,0.5c0,2.6,0,5.3,0,7.9c0,1.8,0,3.7,0,5.5c0,0.3,0.1,0.5,0.3,0.6
	c0.6,0.3,1.2,0.7,1.7,1c0.2,0.1,0.3,0.2,0.1,0.5c-0.9,0.8-1.7,1.5-2.6,2.2c-0.2,0.2-0.5,0.2-0.8,0.1c-0.8-0.4-1.6-0.8-2.5-1.3
	c-0.2-0.1-0.4-0.1-0.6,0c-0.8,0.6-1.5,1.1-2.3,1.7c-0.2,0.2-0.6,0.3-0.9,0.1c-1.7-0.8-3.5-1.6-5.3-2.2c-0.6-0.2-1.2-0.3-1.8-0.2
	L76.5,79.7z M79.4,76.7c0.1,0,0.2,0,0.2,0c0.5,0.1,0.6-0.2,0.8-0.5c0.2-0.3,0.1-0.4-0.2-0.4s-0.4-0.1-0.6-0.1s-0.3,0-0.2,0.1
	C79.5,76.1,79.2,76.4,79.4,76.7c-0.2,0-0.4,0-0.3,0.3c0,0.1,0.2,0.2,0.3,0.2c0,0,0,0,0,0C79.6,77.1,79.4,76.9,79.4,76.7z M82.1,74.8
	L82.1,74.8c0,0.7-0.2,1.6,0.1,2.2c0.3,0.6,1.2,0.8,1.8,1.1c0.2,0.1,0.5,0.1,0.6-0.1c0.6-0.6,1.2-1.1,1.9-1.6
	c0.9-0.6,0.6-1.4,0.6-2.1c0-0.1-0.1-0.2-0.2-0.2c-1.5-0.6-3-1.1-4.5-1.4c-0.3-0.1-0.4,0-0.4,0.4C82.1,73.6,82.1,74.2,82.1,74.8z
	 M89.8,70.7L89.5,71c-0.3,0.4-0.5,0.7-1.1,0.6c-0.2-0.1-0.4,0.1-0.6,0.3c-0.3,0.5-0.9,0.7-1.4,0.7c-0.8-0.1-1.7-0.2-2.5-0.5
	C83.5,72,83,72,82.6,72.1c0.1,0.2,0.2,0.3,0.4,0.3c1.4,0.3,2.9,0.8,4.2,1.3c0.3,0.1,0.4,0.2,0.4,0.5s-0.1,0.4,0.2,0.4s0.6,0,0.6-0.3
	c0-0.5,0.2-0.3,0.4-0.2c0.2,0,0.4,0.1,0.5,0.1c0-0.2-0.4-0.2-0.1-0.5c0.1-0.2,0.3-0.3,0.5-0.2c0.3,0,0.5,0,0.8,0
	c0.2,0,0.2-0.1,0.2-0.2v-2.5C90.1,71.2,90,71.2,89.8,70.7z M78.6,74.8c0.2-0.2,0-0.6,0.4-0.6c0.5,0,1,0,1.4-0.1c0.3,0,0.7,0,1,0.1
	c0.2,0,0.3,0,0.3-0.2c0-0.4,0-0.8,0-1.1c0-0.2-0.1-0.2-0.3-0.2c-0.5-0.1-1-0.2-1.5-0.2c-0.8,0-1.4,0.5-1.4,1.1
	C78.6,73.9,78.6,74.3,78.6,74.8z M88.6,75.4l0.3,0.1c0.6,0.1,0.8,0.4,0.6,0.9c-0.1,0.2,0.1,0.3,0.2,0.4c0.3,0.1,0.5,0.1,0.8,0.2
	c0.2,0.1,0.2-0.1,0.2-0.2c0-0.5,0-1,0-1.4c0-0.1-0.1-0.3-0.2-0.3c-0.1,0-0.2,0-0.2,0.1c-0.2,0.3-0.6,0.4-0.9,0.2c0,0-0.1,0-0.1-0.1
	C89,74.9,88.8,75.1,88.6,75.4L88.6,75.4z M85.4,79.8c-0.2-0.2-0.3-0.4-0.7-0.3s-0.8,0.3-1-0.3c0-0.1-0.2-0.1-0.2,0
	c0,0.4,0,0.7,0.1,1.1c0,0,0.1,0,0.1,0c0.2-0.1,0.6-0.1,0.8-0.3s0.1-0.2,0.2-0.1C85,80.2,85.2,79.9,85.4,79.8z M86.9,78.8
	c0.2,0.1,0.5,0.2,0.7,0.2c0.4,0.1,0.5,0,0.4-0.4c-0.1-0.3-0.3-0.5-0.6-0.6c-0.2-0.1-0.3,0-0.2,0.2C87.4,78.5,87.3,78.7,86.9,78.8
	L86.9,78.8z M86.9,76.7c-0.1,0.1-0.3,0.2-0.3,0.3c0.1,0.2,0.2,0.4,0.4,0.6c0.1,0.1,0.2,0.1,0.3,0.1l0,0c0.1-0.1,0.1-0.3,0-0.5
	C87.1,77.1,87.1,76.8,86.9,76.7L86.9,76.7z M80.8,77.3c-0.4,0.1-0.7,0.2-1.1,0.4C80.2,78.1,80.4,78,80.8,77.3L80.8,77.3z M87,79.9
	c0.1,0,0.2,0,0.2-0.2s-0.1-0.3-0.3-0.3c-0.2,0-0.2,0-0.2,0.2S86.9,79.8,87,79.9z M79.3,78.4c-0.1,0-0.3,0.1-0.3,0.3
	c0,0.2,0.2,0.2,0.3,0.2s0.2-0.1,0.2-0.2C79.5,78.5,79.5,78.4,79.3,78.4L79.3,78.4z M83.6,78.3L83.6,78.3c0,0.1,0,0.2,0.1,0.3
	c0.1,0.1,0.3,0.2,0.5,0.2c0,0,0.1-0.1,0.1-0.1c-0.1-0.2-0.3-0.2-0.4-0.2C83.8,78.4,83.7,78.3,83.6,78.3L83.6,78.3z M81.1,72.1
	c0.2,0.2,0.3,0.3,0.6,0.3c0.1,0,0.1-0.2,0.1-0.2S81.5,72,81.1,72.1L81.1,72.1z"/>
<path class="st2" d="M186.9,65.2c0-0.3,0.2-0.3,0.3-0.4c1.5-1.1,3-2.2,4.5-3.2c0.2-0.2,0.5-0.2,0.7-0.1c1.6,0.8,3.3,1.4,5,1.8
	c0.2,0,0.5,0,0.7,0c0.4-0.1,0.5,0.1,0.5,0.5c0,4.4,0,8.8,0,13.3c0,0.3,0.1,0.6,0.4,0.8c0.5,0.3,1,0.6,1.5,0.9c0.4,0.2,0.5,0.3,0,0.6
	c-0.9,0.7-1.8,1.4-2.7,2.1c-0.2,0.2-0.4,0.2-0.6,0.1c-0.7-0.4-1.4-0.7-2.2-1.1c-0.2-0.2-0.5-0.2-0.8,0c-0.7,0.6-1.5,1.1-2.2,1.7
	c-0.2,0.2-0.5,0.2-0.8,0.1c-1.8-0.9-3.6-1.6-5.5-2.3c-0.5-0.2-1-0.1-1.5-0.3c0.6-0.3,1.2-0.7,1.8-1c0.3-0.1,0.4-0.3,0.4-0.6
	c0-1.7,0-3.4,0-5.2c0-0.3,0.1-0.5,0.3-0.7c1.6-0.9,3.1-2,4.6-3.1c0.2-0.2,0.5-0.2,0.8-0.1c0.8,0.2,1.5,0.5,2.3,0.7
	c0.3,0.1,0.4,0.1,0.4-0.2c0-0.9,0-1.8,0-2.7c0-0.2-0.1-0.4-0.3-0.4c-1.3-0.5-2.6-0.9-3.9-1.3c-1-0.2-2-0.2-3-0.1L186.9,65.2z
	 M198.4,69.4C198.4,69.3,198.4,69.3,198.4,69.4c-0.1-0.3,0.2-0.7-0.2-0.7l-2.6-0.2c-0.1,0-0.3,0-0.3,0.2s0.1,0.2,0.3,0.2l1.4,0.1
	v0.1l-0.4,0.1c0.1,0.2,0.3,0.3,0,0.5c-0.1,0.1-0.1,0.2-0.1,0.3c0,0,0,0,0.1,0.1c0.1,0.1,0.3,0.2,0.4,0c0.3-0.3,0.8-0.4,1.1-0.1
	c0.2,0.1,0.3,0,0.3-0.2S198.4,69.5,198.4,69.4z M197.8,71.3c0,0-0.1,0-0.1-0.1c0-0.5-0.2-0.5-0.6-0.3c-0.1,0.1-0.4,0.2-0.5-0.2
	c0-0.1-0.1-0.2-0.2-0.2s-0.1,0.1-0.1,0.2c-0.1,0.2-0.2,0.1-0.4,0.1c-0.5-0.1-1,0-1.4,0.1c0.4,0.3,0.8,0.6,1.3,0.5
	c0.2-0.1,0.4,0,0.5,0.2c0.2,0.3,0.8,0.5,0.8,0.4c0.2-0.4,0.5-0.1,0.7-0.1s0.5,0.2,0.6-0.1S198.3,71.2,197.8,71.3L197.8,71.3z
	 M190.3,75v0.9c0,1.5,0,1.5,1.4,2.1c0.2,0.1,0.5,0.1,0.6-0.1c0.6-0.6,1.3-1.1,1.9-1.7c0.3-0.3,0.6-0.5,0.6-1c0-0.4,0-0.8,0-1.2
	c0-0.1-0.1-0.1-0.2-0.2c-1.3-0.5-2.6-1-4-1.3c-0.3-0.1-0.3,0-0.3,0.3C190.4,73.6,190.3,74.3,190.3,75z M196.8,63.6
	c-0.3-0.1-0.6-0.2-0.9-0.3c-0.7-0.1-1.3-0.3-1.9-0.6c-0.5-0.3-1.1-0.4-1.5-0.8c-0.1-0.1-0.3-0.1-0.4,0c-0.6,0.4-1.3,0.9-2,1.4
	c0.3,0.2,0.6,0.1,0.9,0.3c-0.5,0-0.8,0.5-1.3,0.7c0.3,0.1,0.7,0.2,0.9,0.5c0.1,0.1,0.3,0.1,0.5,0c0.2-0.1,0.5-0.1,0.7,0
	c0.8,0.3,1.6,0.6,2.3,1.1c0.7,0.6,1.7,0.7,2.5,0.3c-0.4-0.1-0.9-0.2-1.4-0.4c-0.1,0-0.5,0-0.4-0.3s0.3-0.3,0.6-0.3
	c0.7,0.2,1.5,0.3,2.3,0.3c-0.1-0.4-0.4-0.6-0.7-0.7c-0.3-0.1-0.7,0-1,0.1c-0.1,0.1-0.4,0-0.3-0.1c0.2-0.3,0-0.4,0-0.6
	c-0.1-0.2,0-0.4,0.2-0.5c0,0,0,0,0,0C196.2,63.6,196.5,63.6,196.8,63.6L196.8,63.6z M192.5,71.1c-0.2-0.1-0.5-0.1-0.7,0
	c-0.3,0.2-0.4,0.1-0.4-0.2c0-0.4-0.4-0.4-0.6-0.4c-0.5,0.1-0.9,0.3-1.2,0.6c-0.1,0.1-0.4,0.1-0.3,0.3c0.1,0.1,0.2,0.2,0.4,0.2
	c0.6-0.1,1.2,0,1.7,0.1c0.4,0.2,0.9-0.1,1-0.5C192.5,71.1,192.5,71.1,192.5,71.1L192.5,71.1z M198.2,67h-1.1c-0.1,0-0.1,0-0.1,0.2
	c0,0.1,0.1,0.1,0.1,0.1c0,0,0,0,0,0c0.3-0.2,0.6,0,1,0c0.1,0,0.3,0.1,0.3-0.2s0.1-0.5-0.1-0.7c-0.1,0-0.2,0-0.2,0.1
	s-0.1,0.1-0.1,0.2C198,66.8,198.1,66.9,198.2,67z M188.8,71.6c-0.5,0.1-0.4,0.6-0.8,0.7c0,0-0.1,0.2-0.1,0.3c0.1,0.1,0.3,0.1,0.4,0
	C188.6,72.4,188.8,72,188.8,71.6z M198.3,72.4c-0.5,0.3-0.8,0.7-1.3,0.7C197.8,73.4,197.9,73.4,198.3,72.4z M189.4,73.6
	c0-0.2-0.2-0.2-0.4-0.3c-0.1,0-0.2,0-0.2,0.1c0,0,0,0.1,0,0.1c0,0.2,0.1,0.4,0.3,0.4S189.4,73.7,189.4,73.6z M187.7,74.1
	c-0.3-0.1-0.4-0.3-0.6-0.2s-0.1,0.4,0,0.6L187.7,74.1z M197.7,63.7c0,0.2,0.1,0.5,0.4,0.4c0.2,0,0.2-0.1,0.2-0.2
	C198.1,63.6,197.9,63.8,197.7,63.7L197.7,63.7z M195.5,66.9c0.1,0.2,0.4,0.3,0.6,0.2C196,66.9,195.8,66.8,195.5,66.9L195.5,66.9z"/>
<path class="st3" d="M92.8,80.5c0.4-0.4,0.9-0.7,1.5-0.9c0.4-0.1,0.6-0.5,0.5-0.8c0-3.9,0-7.8,0-11.7c0-0.7,0.3-1.3,0.8-1.7
	c0.7-0.6,1.5-0.9,2.2-1.4c1-0.7,2-1.5,2.9-2.4c0.3-0.3,0.5-0.3,0.9,0c1.5,1,3,2,4.6,2.8c0.9,0.5,0.9,0.5,0.1,1.2s-1.5,1.2-2.2,1.9
	c-0.2,0.2-0.5,0.2-0.7,0c-1.5-0.8-3.1-1.5-4.6-2.2c-0.2,0.1-0.1,0.3-0.1,0.4c0,4,0,7.9,0,11.9c0,0.3,0.1,0.6,0.4,0.7
	c1.7,1.1,3.8,1.5,5.8,1.1h0.4c0,0,0,0,0.1,0.1c-0.1,0.2-0.3,0.3-0.5,0.4c-1.5,1.1-3,2.2-4.6,3.4c-0.2,0.2-0.5,0.2-0.8,0.1
	c-1.5-0.8-3.1-1.6-4.7-2.2C94.3,80.6,93.5,80.5,92.8,80.5z M98.3,72.3c0.3-0.1,0.1-0.4,0.2-0.6c0.1-0.4-0.1-0.5-0.5-0.4
	c-0.2,0.1-0.5,0.1-0.7,0.1c-0.6,0-1.3,0.1-1.9,0.3c-0.3,0.1-0.1,0.4-0.2,0.6s0.1,0.2,0.2,0.2c0.4,0,0.7,0,1.1,0c0.5,0,1,0.2,1.4,0.5
	c0.2,0.1,0.3,0.3,0.5,0.1s0-0.3-0.1-0.4S98.4,72.5,98.3,72.3L98.3,72.3z M97.1,69.6c-0.5,0.5-1.1,0.6-1.6,1
	c-0.1,0.1-0.4,0.1-0.3,0.3s0.3,0.2,0.5,0.2s0.4-0.2,0.5-0.3c0.3-0.4,0.8-0.5,1.3-0.3c0.2,0.1,0.3,0,0.2-0.2c0-0.1-0.1-0.3-0.1-0.4
	c-0.3-0.4,0-0.6,0.3-0.8C98,69,98.2,69,98.3,69c0.1,0,0.2-0.1,0.1-0.2s-0.1-0.1-0.2-0.1c-0.4,0.1-0.8,0.1-1.2,0.2
	c-0.2,0-0.4,0.1-0.4,0.4S96.9,69.4,97.1,69.6L97.1,69.6z M95.8,77.7c-0.2,0.2-0.4-0.2-0.5,0.1c0,0.2-0.1,0.4-0.1,0.6
	c0,0.3,0.1,0.3,0.4,0.3c0.7,0,1-0.7,1.5-1c0.1,0,0.1-0.2,0-0.3c-0.1-0.4-0.6-0.7-1-0.6C95.6,77,95.6,77.3,95.8,77.7L95.8,77.7z
	 M98.2,78.4c0.2,0,0.4,0.1,0.4-0.1s-0.1-0.2-0.2-0.3s-0.2-0.3-0.4-0.5c-0.1-0.1-0.2-0.2-0.3-0.2c-0.1,0-0.2,0.2-0.2,0.3
	c-0.1,0.3,0,0.6,0.3,0.7c0,0,0.1,0,0.1,0L98.2,78.4z M96,75.7c0.3-0.1,0.6-0.4,0.8,0c0,0,0.2,0,0.2-0.1s0.1-0.2,0-0.3
	C96.7,75.2,96.2,75.3,96,75.7z M97.8,74.5H97c-0.1,0-0.2,0-0.2,0.2c0,0.1,0.1,0.2,0.2,0.2c0,0,0.1,0,0.1,0
	C97.4,74.8,97.6,74.7,97.8,74.5z"/>
<path class="st2" d="M175,83.9c0.5-0.3,1-0.5,1.5-0.8c0.3-0.1,0.5-0.4,0.4-0.7c0-4.2,0-8.3,0-12.5c0-0.4-0.1-0.4-0.5-0.4
	c-0.9,0-1.7,0-2.6,0c-0.2,0-0.4,0.1-0.4-0.1c-0.1-0.2,0-0.4,0.1-0.5c0.1-0.2,0.3-0.3,0.4-0.5c0.4-0.7,1.2-1.1,2-1
	c0.9,0.1,0.9,0,0.9-0.8s0-1.6,0-2.5c0-0.6,0.2-1.2,0.8-1.6c0.9-0.7,1.8-1.2,2.9-1.7c0.4-0.2,0.3,0.2,0.3,0.4c0,1.9,0,3.7,0,5.6
	c0,0.5,0.1,0.7,0.6,0.7c1.3,0,2.5,0,3.8,0c0.2,0,0.4-0.1,0.5,0.1c0.1,0.2,0,0.4-0.1,0.6c-0.2,0.2-0.3,0.4-0.4,0.6
	c-0.4,0.7-1.1,1-1.9,0.9c-0.7-0.1-1.4,0-2.1,0c-0.3,0-0.4,0.1-0.4,0.4c0,3.7,0,7.4,0,11.1c0,0.2,0.1,0.3,0.2,0.4
	c1.3,0.9,2.9,1.4,4.5,1.5c0.1,0,0.2,0,0.4,0s0.5-0.2,0.6,0s-0.2,0.3-0.4,0.4c-1.2,1-2.4,1.9-3.5,2.9c-0.2,0.2-0.5,0.2-0.8,0.1
	c-1.6-0.8-3.3-1.4-5-2c-0.6-0.2-1.1-0.2-1.7-0.2L175,83.9z M177.7,64.6L177.7,64.6l0.3,0.4c-0.4,0.3-0.5,0-0.7-0.3
	c-0.1,0.2-0.1,0.4-0.1,0.6c0,0.1,0,0.3,0.1,0.2c0.5-0.2,0.9,0.2,1.3,0s0.7,0,1.2,0.1c-0.4,0.4-1.1,0.3-1.2,0.9l-0.1,0.1
	c0-0.1-0.1-0.2-0.1-0.2c-0.4,0-0.8,0-1.1,0.1c-0.2,0.1-0.1,0.4-0.1,0.6s0.2,0.2,0.3,0.1c0.6-0.4,1-0.1,1.5,0.2
	c0.1,0.1,0.3,0.2,0.4,0s0.2-0.2,0.3-0.1s0,0.1,0,0.2s-0.1,0.3-0.3,0.3c-0.2,0-0.4,0-0.6,0.1c0.1,0.2,0.2,0.4,0.1,0.6s-0.4,0-0.6,0
	s-0.3-0.1-0.5-0.1c0.2,0.6,0.8,0.9,1.4,0.8c0,0,0,0,0.1,0c0.6-0.2,1.3-0.2,2-0.2c0.3,0,0.6-0.2,0.8-0.5c-0.7,0-1.3-0.1-2-0.2
	c0.4-0.2,0.8-0.2,1.2-0.1c0.4,0.1,0.8,0,1.1-0.3c0.2,0,0.6,0.1,0.5,0.2c-0.3,0.3-0.1,0.9-0.8,1c0.4,0.1,0.7,0.2,0.9-0.1
	c0.3,0.4,0.6,0.2,0.9,0c-0.3-0.2-0.7-0.2-1,0c-0.1-0.3,0.4-0.6,0.1-0.9c0,0,0.1-0.1,0.1-0.1c0.5,0.1,1-0.3,1.5-0.1
	c0.1,0,0.2,0,0.2-0.1s-0.1-0.1-0.2-0.1h-2.4c-0.5,0-1,0-1.5,0s-0.5-0.1-0.5-0.6c0-1.8,0-3.6,0-5.3c0-0.4-0.2-0.5-0.5-0.4
	c-0.7,0.3-1.4,0.7-2,1.2c0.5,0.2,0.9-0.3,1.3,0c-0.2,0.2,0,0.4,0.1,0.5s0.2,0,0.2-0.1s-0.1-0.3-0.2-0.4l-0.1-0.1
	c0.8-0.2,0.7,0.6,1.1,0.9c-0.1,0.2-0.4,0.1-0.3,0.3c0,0.4-0.2,0.3-0.4,0.1s-0.4-0.4-0.8-0.4c0,0,0-0.1,0-0.1c0.1,0,0.3-0.1,0.2-0.2
	s-0.2-0.1-0.3-0.1s-0.5-0.1-0.7-0.1s-0.7-0.1-0.7,0.3s-0.3,0.9,0.3,1v0.1C177.7,64.6,177.6,64.6,177.7,64.6L177.7,64.6z M173.9,69.2
	h1.1c0.3,0,0.4,0,0.4-0.4c-0.1-0.6,0-0.7,0.6-0.6c0.1,0,0.2,0,0.2-0.2s0-0.3-0.2-0.3c-0.2,0-0.4,0-0.6,0
	C174.9,68,174.3,68.5,173.9,69.2L173.9,69.2z M184.1,68.1c-0.2,0-0.4,0-0.5,0.2s0.2,0.1,0.4,0.1s0.5,0,0.5-0.2
	S184.3,68.2,184.1,68.1L184.1,68.1z"/>
<path class="st2" d="M135.4,77.1l1.1-0.4c0,0.3-0.2,0.3-0.2,0.4c-1.4,1-2.7,2-4.1,3.1c-0.2,0.2-0.6,0.3-0.9,0.1
	c-0.7-0.3-1.4-0.6-2.2-0.9c-0.8-0.4-1.7-0.6-2.6-0.5c-0.1,0-0.2,0-0.3,0c0,0,0,0-0.1-0.1c0.4-0.3,0.8-0.5,1.3-0.7
	c0.3-0.1,0.5-0.5,0.5-0.8c0-2.3,0-4.5,0-6.8c0-0.5,0.2-0.9,0.5-1.1c1.3-0.8,2.5-1.8,3.6-2.9c0.1-0.1,0.2-0.1,0.3-0.1c0,0,0,0,0,0
	c1.3,0.6,2.5,1.1,3.9,1.6c0.4,0.2,0.5,0.3,0.1,0.5c-0.7,0.6-1.1,1.5-0.9,2.4C135.4,72.8,135.4,74.9,135.4,77.1z M130.6,69.1v7.4
	c0,0.1,0,0.3,0.2,0.3c0.5,0.3,0.9,0.5,1.4,0.6c0.2,0.1,0.4,0,0.4-0.3c0-2.4,0-4.8,0-7.2c0-0.2,0-0.3-0.2-0.4
	C131.8,69.4,131.3,69.3,130.6,69.1L130.6,69.1z M128.9,70.5c0.4,0,0.8,0,1.1,0c0.1,0,0.3-0.1,0.3-0.2c0-0.1,0-0.1,0-0.2
	c-0.1-0.2-0.4-0.3,0-0.5c0.1-0.1,0-0.3-0.2-0.4c-0.5-0.1-1.1,0-1.5,0.4c-0.3,0.2-0.5,0.6-0.3,1C128.4,70.8,128.7,70.5,128.9,70.5
	L128.9,70.5z M133.1,71.6c0,0.2,0,0.4,0,0.6s-0.1,0.5,0.1,0.5c0.2,0,0.7,0.1,0.8-0.2c0.1-0.2,0.3-0.3,0.5-0.5s0.5-0.2,0.4-0.6
	s-0.4-0.7-0.9-0.7c-0.2,0-0.7,0.1-0.6,0.4C133.6,71.8,133.3,71.7,133.1,71.6L133.1,71.6z M131.9,69v0.1c0.2,0.1,0.4,0.1,0.6,0.2
	c0.1,0.1,0.3,0,0.3-0.1c0,0,0,0,0,0c0.1-0.1,0.1-0.2,0.1-0.3s-0.2,0-0.3,0L131.9,69z M135.6,68.5L135.6,68.5l-0.7-0.1
	c-0.1,0-0.2,0.1-0.2,0.2s0.1,0.2,0.3,0.1L135.6,68.5z M134.9,69.4c0-0.2-0.2-0.1-0.3-0.1s-0.2,0-0.2,0.2c0,0.1,0.1,0.2,0.2,0.2
	c0,0,0,0,0,0C134.9,69.7,134.9,69.5,134.9,69.4L134.9,69.4z"/>
<path class="st2" d="M147.7,78.8l-2.3,1.6c-0.1,0.1-0.2,0.1-0.4,0c-0.8-0.4-1.6-0.8-2.4-1.1c-0.2-0.1-0.2-0.2,0-0.3
	c0.9-0.3,0.8-1,0.8-1.8c0-2.4,0-4.7,0-7.1c0-0.3-0.1-0.5-0.4-0.6c0,0,0,0,0,0c-0.7-0.2-1.4-0.4-2.1-0.6c-0.3-0.1-0.4,0-0.4,0.3
	c0,2.8,0,5.6,0,8.4c0,0.3,0.1,0.3,0.3,0.4c1,0.6,1,0.6,0.1,1.2c-0.5,0.3-1,0.9-1.5,0.9c-0.6-0.1-1.1-0.4-1.6-0.7
	c-0.3-0.1-0.6-0.3-0.8-0.5c0.1,0,0.1-0.1,0.2-0.1c1-0.4,1.1-1.1,1.1-2.1c-0.1-2.3,0-4.6,0-6.9c0-0.3-0.1-0.5-0.4-0.6
	c-0.4-0.1-0.7-0.3-1-0.5s-0.2-0.2,0-0.4c0.7-0.4,1.3-0.9,2-1.3c0.1-0.1,0.3-0.1,0.5,0c0.5,0.3,1.1,0.6,1.6,0.9
	c0.2,0.1,0.4,0.1,0.5,0c0.4-0.4,1-0.8,1.5-1.1c0.6-0.2,1.1,0.4,1.7,0.6s1.4,0.5,2,0.7c0.3,0.1,0.5,0.2,0.1,0.5
	c-0.8,0.6-1.2,1.7-1,2.7c0.1,2.2,0,4.3,0,6.5c-0.1,0.4,0.2,0.7,0.6,0.8C146.8,78.6,147.2,78.7,147.7,78.8z M145.4,70.8
	c0-0.2,0.1-0.4-0.1-0.5c-0.2-0.1-0.3,0.1-0.5,0.2c-0.2,0.2-0.5,0.3-0.7,0.3c-0.1,0-0.3-0.1-0.3,0.1c0,0.2,0.1,0.2,0.2,0.3
	c0.1,0.1,0.2,0.1,0.3,0.2c0.3,0.1,0.5,0.3,0.3,0.7c0,0.1-0.1,0.2,0.1,0.3c0.2,0.1,0.5,0.1,0.6,0c0.2-0.2,0.2-0.4,0-0.6
	c-0.1-0.2-0.2-0.3,0-0.5S145.4,70.9,145.4,70.8L145.4,70.8z M138.3,68c0.5-0.1,1-0.1,1.5,0C139.2,67.4,139.1,67.4,138.3,68L138.3,68
	z M139.6,73.8v-0.3c0-0.2-0.1-0.3-0.3-0.4c-0.1,0-0.3,0-0.4,0.1c-0.1,0.2,0.1,0.2,0.2,0.3c0,0.1,0.1,0.1,0.1,0.2
	c0,0.2,0,0.4,0.2,0.3S139.7,73.9,139.6,73.8L139.6,73.8z M138.8,71.4c0.3,0.2,0.6,0.5,1,0.3c0.2,0,0.3-0.1,0.2-0.3s-0.1-0.3-0.3-0.2
	C139.5,71.3,139.1,71.3,138.8,71.4L138.8,71.4z"/>
<path class="st2" d="M169.7,82.4l-0.3-0.1l-3.5-1.7c-0.4-0.2-0.4-0.3,0-0.5c0,0,0.1,0,0.1-0.1c0.5-0.4,1.3-0.6,1.5-1.1
	c0.2-0.7,0.2-1.3,0.1-2c0-3,0-5.9,0-8.9c0.1-0.5-0.2-1-0.8-1.2c-0.3-0.1-0.7-0.3-1-0.5c-0.3-0.2-0.3-0.3,0-0.5
	c1.1-0.8,2.3-1.6,3.4-2.3c0.1-0.1,0.3-0.2,0.5-0.1c1.2,0.7,2.4,1.3,3.6,1.9c0.3,0.2,0.3,0.3,0,0.4c-0.5,0.3-1,0.7-1.5,1
	c-0.2,0.1-0.3,0.3-0.3,0.5c0,3.6,0,7.2,0,10.9c0,0.2,0.1,0.5,0.3,0.6c0.5,0.2,1,0.5,1.5,0.8c0.2,0.1,0.2,0.2,0,0.4l-3.5,2.3
	L169.7,82.4z M170.9,65.9V66c-0.3,0.3,0.2,0.3,0.1,0.5c-0.2,0.2-0.4,0.2-0.5-0.1s-0.3-0.4-0.2-0.7s-0.2-0.3-0.4-0.3
	s-0.1,0.2-0.1,0.3s-1,0.6-1.3,0.5s-0.8,0.1-1.2-0.1c-0.1-0.1-0.2,0-0.3,0.2s0,0.2,0.1,0.3c0.6,0.2,1.1,0.6,1.5,1
	c-0.2,0.1-0.4,0.1-0.5,0.2s-0.1,0.2,0,0.3c0.3,0.1,0.7,0,0.8-0.4c0-0.1,0-0.2,0-0.2c0.4-0.2,0.8-0.3,1.2-0.2c0.1,0,0.1,0,0.2,0
	c0.6-0.1,1.1-0.3,1.5-0.8c0.3-0.2,0.8-0.3,0.8-0.7s-0.6-0.5-1-0.6c-0.2-0.2-0.5-0.4-0.8-0.5c-0.2-0.1-0.4-0.1-0.6,0.1
	s-0.2,0.4,0.1,0.5c0,0,0,0.1,0,0.2C170.3,65.7,170.5,65.9,170.9,65.9L170.9,65.9z M168.4,70.8c0-0.2,0.2-0.5,0.1-0.8
	c-0.2-0.5,0.1-0.4,0.4-0.4c0.1,0,0.3,0.1,0.4,0c0.1-0.1,0-0.3-0.1-0.4c-0.1-0.2-0.4-0.3-0.1-0.6c0.1-0.1-0.1-0.1-0.2-0.2
	c-0.3-0.2-0.6,0.1-0.9-0.2c0.1,0.4-0.1,0.8,0.4,0.9c0.1,0,0.1,0.2-0.1,0.3c-0.4,0-0.3,0.3-0.3,0.5s0,0.7,0,1s0,0.5,0.3,0.4
	s0.6-0.1,0.6-0.4S168.6,70.9,168.4,70.8C168.4,70.8,168.4,70.8,168.4,70.8L168.4,70.8z M170.4,68.8c0.4,0,0.9-0.3,0.9-0.6
	S171,68,170.8,68c-0.4,0-1,0.3-1,0.5C170,68.7,170.2,68.8,170.4,68.8L170.4,68.8z M168.2,65.3c0.2-0.1,0.4,0,0.4-0.2
	c0-0.1-0.1-0.2-0.2-0.3c0,0,0,0-0.1,0c-0.2,0-0.4,0.1-0.5,0.3C167.9,65.2,168.1,65.2,168.2,65.3L168.2,65.3z M168.4,72
	c0.2,0,0.4,0.3,0.6,0c0.1-0.1,0.1-0.2,0-0.3c0,0,0,0,0,0C168.8,71.5,168.6,71.7,168.4,72L168.4,72z M167.2,65.6
	c0.2,0.1,0.4,0.2,0.7,0s0.1-0.2,0-0.2C167.6,65.2,167.4,65.3,167.2,65.6L167.2,65.6z M169.6,63.9c-0.1,0.1-0.3,0.1-0.2,0.2
	s0.1,0.3,0.2,0.2c0.1,0,0.2-0.1,0.3-0.3C169.9,63.9,169.7,63.9,169.6,63.9L169.6,63.9z M169.1,64.2c0,0.3-0.3,0.4,0,0.6
	s0.3,0.1,0.3,0S169.2,64.5,169.1,64.2L169.1,64.2z"/>
<path class="st0" d="M151.3,101.7c-0.3-0.1-0.6-0.1-0.9,0c-0.8,0.2-0.9,0.1-1.3-0.6c-0.1-0.1-0.1-0.3-0.3-0.3s-0.1,0.3-0.1,0.4
	c0,0.5-0.2,0.7-0.7,0.4c-0.2-0.1-0.3-0.2-0.5-0.2c-1.3,0.1-2.5-0.1-3.8,0v-0.1c0.2-0.4,0.4-0.8,0.6-1.2c0.1-0.2,0.2-0.1,0.4-0.1
	s0.2,0.1,0.2,0.2s0.1,0.3,0.2,0.3s0.2-0.2,0.1-0.3s0.1-0.2,0.3-0.2h3c0.1,0,0.3,0,0.3,0.1c0.1,0.5,0.4,0.2,0.6,0.1
	c0.9-0.5,1.7-1.1,2.4-1.9c0.3-0.3,0.7-0.5,1.1-0.5c0.2,0,0.5,0,0.7-0.1c0,0-0.1-0.1-0.1-0.1c-0.3-0.1-0.8,0.1-0.9-0.2
	s0.2-0.6,0.4-0.8c0.7-1.4,1.1-2.9,1.1-4.4c0-0.3,0.1-0.6,0.1-0.9c0-0.2,0.1-0.3,0.3-0.3c0.4,0,0.8-0.3,1.2-0.3c0.1,0,0.2,0,0.3-0.1
	c0.1-0.1,0.2-0.2,0.4-0.1s0.2,0.3,0.2,0.5c0,0.9,0,1.7,0.2,2.6c0.1,0.2,0.1,0.5,0.2,0.8s0,0.4-0.4,0.4h-1V95h1.1
	c0.3,0,0.5,0.1,0.6,0.4c0.2,0.5,0.4,1,0.6,1.4c0,0.1,0.2,0.2,0,0.3s-0.2,0-0.4-0.1l-0.2-0.1c-0.1,0-0.1-0.1-0.2,0
	c-0.1,0.1-0.1,0.1,0,0.2c0,0,0,0,0,0c0.2,0.1,0.2,0.6,0.7,0.3c0.1-0.1,0.3,0.1,0.4,0.3c0.1,0.3,0.3,0.4,0.6,0.6s0.7,0.5,1.1,0.7
	s0.4,0.4,0.6,0.6c0,0,0,0,0.1,0.1c0.4,0.1,0.8,0.4,1,0.8c0,0.1,0,0.1,0,0.2c-0.2,0.7-0.8,1.3-1.5,1.6c-0.1,0-0.3,0.1-0.3-0.1
	c0-0.4-0.3-0.4-0.6-0.6s-0.3,0.2-0.4,0.3c0,0.1-0.2,0.1-0.3,0.1c-0.1-0.1,0-0.1,0-0.2c0.1-0.3-0.2-0.5-0.4-0.7s-0.4-0.2-0.2-0.5
	c0,0,0-0.2,0-0.2c-0.4,0.2-0.5-0.3-0.8-0.4s-0.5,0.3-0.9,0.4c-0.1-0.2,0.1-0.5-0.1-0.7l0,0c0.5,0.2,1,0,1.4,0.4
	c0.1,0.1,0.2,0.1,0.2,0c0,0,0,0,0,0c0-0.1,0-0.2-0.1-0.2c-0.4-0.2-0.8-0.6-1.1-1c-0.5-0.6-1-1.4-1.2-2.2c0-0.1,0-0.3-0.2-0.2
	s-0.2,0.2-0.2,0.3c-0.3,0.8-0.6,1.6-1.1,2.4c-0.1,0.1-0.1,0.3-0.3,0.3s-0.2-0.2-0.2-0.4c0-0.5-0.3-0.5-0.7-0.4
	c0.4,0.4,0.5,1,0.2,1.6c-0.3,0.7-0.8,1.2-1.5,1.4L151.3,101.7z M156.5,97.2c-0.3,0-0.3,0.3-0.3,0.4s0,0.4,0.3,0.4
	c0.4,0,0.1-0.4,0.3-0.5C156.8,97.3,156.6,97.2,156.5,97.2z M157,98.5c0.1,0.2,0.2,0.4,0.5,0.5c0.1,0,0.1-0.1,0.1-0.1
	C157.5,98.7,157.3,98.5,157,98.5L157,98.5z M152.7,97.9c0,0.3,0.1,0.5,0.3,0.6c0.1,0,0.1,0,0.1-0.1C153.1,98.1,153,98,152.7,97.9
	L152.7,97.9z"/>
<path class="st4" d="M42.3,56.1c0.1,0.2,0.1,0.4,0.1,0.6v6c0,6,0,12,0,18c0,1,0,1.9,0,2.9c0.1,0.5-0.2,0.9-0.7,1.1
	c-0.2,0.1-0.4,0.1-0.4-0.3c0-0.1,0-0.2,0-0.4c0-2.7,0-5.5,0-8.2c0.1-5.3-0.1-10.6,0-15.9c0-1.1,0.2-2.1,0.5-3.1
	C41.9,56.5,42.1,56.3,42.3,56.1z"/>
<path class="st5" d="M155.9,72.5c0.1-3.9,0.1-7.8,0.1-11.7c0-0.6,0.2-1.2,0.7-1.6c0.1-0.1,0.2-0.2,0.3-0.1s0.1,0.2,0.1,0.3
	c0,1.4,0,2.8,0,4.2c0,3.5,0,7,0,10.4c0,2.9,0,5.7,0,8.6c0,0.7-0.2,1.4-0.7,1.9c-0.1,0.1-0.2,0.3-0.4,0.2s-0.1-0.3-0.1-0.4
	c0-1.4,0-2.7,0-4.1L155.9,72.5z M156.8,70.5V68c0-0.2,0-0.4-0.2-0.4s-0.2,0.2-0.3,0.4c0,0.6,0,1.2,0,1.8c0,0.1,0,0.2,0.1,0.2
	S156.6,70.3,156.8,70.5L156.8,70.5z M156.8,63.4c0-0.1,0-0.2,0-0.3c0-0.1,0.1-0.4-0.2-0.4c-0.3,0-0.3,0.2-0.3,0.5c0,0.1,0,0.1,0,0.2
	c0.1,0.2-0.2,0.7,0.2,0.7S156.7,63.5,156.8,63.4L156.8,63.4z M156.2,74.7c0.1,0.4-0.2,0.8,0.2,1c0.1,0.1,0.3,0.1,0.3,0
	c0,0,0-0.1,0-0.1C156.8,75.1,156.6,74.9,156.2,74.7L156.2,74.7z M156.8,72.5c0-0.2-0.2-0.3-0.4-0.4c-0.2-0.1-0.2,0.1-0.2,0.2
	c0,0.3,0.2,0.3,0.4,0.3C156.8,72.7,156.8,72.5,156.8,72.5L156.8,72.5z"/>
<path class="st5" d="M120,90.1c0.2,0.1,0.5-0.1,0.7,0.2c-0.2,0.1-0.4,0.4-0.8,0.2c-0.1-0.1-0.2,0-0.2,0.2s0.1,0.2,0.2,0.2
	s0.4,0,0.6,0c0.2,0,0.3,0.2,0.3,0.4c0,0,0,0,0,0c-0.1,0.2-0.2,0.1-0.4,0s-0.3-0.2-0.4,0s0.2,0.2,0.3,0.3c0.3,0.1,0.5,0.2,0.6,0.5
	c0.2,0.5,0,0.7-0.5,0.8c-0.7,0.1-1.3,0-2-0.1c-0.7,0-1.3,0-2,0c-0.3,0-0.4-0.1-0.4-0.4c0-1.2,0-1.2,1.2-1.3h0.5
	c0.1,0,0.4,0.1,0.3-0.2c0-0.2-0.1-0.4-0.3-0.4c0,0-0.1,0-0.1,0c-0.5,0-1,0-1.5,0s-0.4-0.3-0.4-0.6s-0.2-0.7,0.4-0.6
	c0.4,0,0.8,0,1.1,0c0.3,0,0.7,0.1,0.8-0.3c0-0.1,0.2-0.1,0.3-0.1c0.5,0.1,1.1-0.3,1.4,0.4c0,0.1,0.2,0.1,0.3,0.1s0.3-0.1,0.3,0.2
	c0,0.2-0.1,0.3-0.2,0.4c0,0,0,0,0,0C120.1,89.9,120,90,120,90.1C120,90.1,120,90.1,120,90.1z M120,91.8c-0.2,0-0.4,0-0.4,0.2
	s0.2,0.3,0.4,0.3s0.4,0,0.4-0.2S120.1,91.8,120,91.8z M117.8,92.3c0.2,0,0.4,0,0.3-0.2s-0.2-0.3-0.4-0.3s-0.3,0.1-0.3,0.3
	S117.5,92.3,117.8,92.3L117.8,92.3z"/>
<path class="st6" d="M166.2,62.7l2.7-3.2c0.1-0.1,0.3-0.3,0.4-0.3l3.5-1.3c0.1,0,0.3-0.2,0.4,0s-0.1,0.2-0.2,0.3
	c-0.6,0.7-1.2,1.3-1.8,2.1c-0.5,0.7-1.2,1.2-2.1,1.5c-0.8,0.3-1.6,0.6-2.5,1C166.6,62.7,166.5,62.8,166.2,62.7z"/>
<path class="st5" d="M105.9,89.9c0.1,0.1,0.1,0.2,0.2,0.3s0.4,0.2,0.3,0.4c-0.1,0.1-0.3,0.2-0.5,0.2c-0.9-0.1-1.8-0.1-2.6-0.1
	c-0.2,0-0.3-0.1-0.2-0.3s0.5-0.6,0.4-1.1c0-0.1,0.1-0.1,0.2-0.1c0.1,0,0.3-0.1,0.3-0.2c0.2-0.7,0.8-0.8,1.3-1l0,0
	c0.1,0.2,0.1,0.6,0.5,0.4c0,0,0.1,0,0.1,0.1c0,0,0,0.1,0,0.1c-0.1,0.2-0.3,0-0.4,0s0.2,0.2,0,0.4c-0.2,0-0.2-0.2-0.2-0.3
	c-0.1-0.1-0.3-0.2-0.4-0.1c0,0-0.1,0-0.1,0.1c-0.2,0.2,0,0.2,0.1,0.3c0.2,0.2,0.5,0.3,0.8,0.3l0.5,0.1c0.1,0,0.1,0.2,0.1,0.3
	s-0.2,0.1-0.2,0.1S105.9,89.8,105.9,89.9C105.9,89.9,105.9,89.9,105.9,89.9z"/>
<path class="st5" d="M126.5,91.9c-0.3,0-0.5,0-0.8,0c-0.5,0-0.9-0.4-0.9-0.8c0-0.1,0-0.3,0.1-0.4c0.1-0.2,0.2-0.1,0.3-0.1
	c0.9,0.1,1.8,0,2.7,0.1c0.2,0,0.3,0.1,0.2,0.3c0,0.5-0.3,0.9-0.8,0.9c0,0-0.1,0-0.1,0C127,91.9,126.7,91.9,126.5,91.9L126.5,91.9z"
	/>
<path class="st5" d="M158.3,89.4l-1.2,0.1c-0.3,0-0.7-0.1-0.7,0.4c0,0-0.1,0.1-0.2,0.1c-0.6,0.2-1.3,0.3-1.9,0.4c0,0-0.1,0-0.1,0
	c-0.1-0.5-0.2-0.9-0.1-1.4c0.1-0.1,0.2-0.1,0.3-0.1h1.6c0.2,0,0.4,0,0.5,0.2c0.1,0.2,0.3,0.1,0.5,0.1
	C157.4,89.3,157.9,89.3,158.3,89.4L158.3,89.4C158.3,89.4,158.3,89.4,158.3,89.4z"/>
<path class="st4" d="M103.7,91.1h2.7c-0.4,0.5-0.7,1-1,1.4c-0.1,0.1-0.2,0.1-0.2,0L103.7,91.1z"/>
<path class="st4" d="M151.3,101.7h0.1c-0.2,0.6-0.7,0.7-1.1,1c-0.1,0.1-0.2-0.1-0.3-0.2c-0.1-0.1-0.4-0.4-0.3-0.6
	c0.1-0.3,0.2-0.1,0.4-0.1C150.5,101.7,150.9,102,151.3,101.7z"/>
<path class="st4" d="M120.9,90.5c0.4-0.3,0.7-0.6,0.3-1c-0.1-0.1,0-0.2,0.2-0.2s0.5-0.1,0.5,0.1c0,0.3,0,0.6,0,0.9
	c0,0.2-0.1,0.1-0.2,0.1L120.9,90.5z"/>
<path class="st4" d="M146.1,103.9c-0.3-0.2-0.6-0.3-0.9-0.3c0,0,0-0.1,0-0.1s0.7-0.5,0.8-0.5c0.2,0.2,0.4,0.4,0.4,0.7
	C146.4,103.8,146.2,103.8,146.1,103.9z"/>
<path class="st4" d="M143.7,101.2v0.1c0,0-0.1,0-0.2,0.1c-0.3,0-0.6,0.1-0.8-0.1s0.2-0.4,0.3-0.6c0,0,0-0.1,0-0.1l0,0
	c0.5-0.1,0.6,0,0.4,0.5C143.4,101.3,143.5,101.3,143.7,101.2z"/>
<path class="st4" d="M127.6,90.3c-0.2-0.1-0.5,0.1-0.4-0.2c0-0.2,0-0.5,0.2-0.4s0.7-0.1,0.8,0.3S127.8,90.2,127.6,90.3z"/>
<path class="st4" d="M121.2,91.9c0.3,0.1,0.7,0,0.6,0.6c0,0.1,0,0.2-0.2,0.2C121.1,92.6,121,92.3,121.2,91.9z"/>
<path class="st7" d="M158.3,89.4C158.3,89.4,158.3,89.4,158.3,89.4L158.3,89.4c0.6-0.2,1.3-0.2,1.9-0.1L158.3,89.4z"/>
<path class="st4" d="M156.2,101.9c0,0.2,0.1,0.4-0.2,0.4c-0.3,0-0.2-0.1-0.2-0.3c0-0.1-0.2-0.5,0.2-0.6
	C156.3,101.4,156.1,101.7,156.2,101.9z"/>
<path class="st4" d="M154.4,101.9c0.1,0,0.3,0,0.3,0.2c0,0.2,0,0.4-0.3,0.4s-0.2-0.2-0.2-0.4C154.1,101.9,154.2,101.8,154.4,101.9z"
	/>
<path class="st4" d="M133.2,102.5L133.2,102.5h2.6l0.3,0.1L133.2,102.5z"/>
<path class="st4" d="M136,91.2c-0.2-0.2-0.3-0.3-0.4-0.6c0.2,0.1,0.6-0.2,0.7,0.1S135.9,90.9,136,91.2z"/>
<path class="st5" d="M133.9,89.3L133.9,89.3c-0.5,0.1-0.9,0.1-1.3,0l0,0L133.9,89.3z"/>
<path class="st4" d="M135.5,99.9L135.5,99.9c0.3,0.1,0.3-0.2,0.5-0.1c0,0.3-0.1,0.4-0.3,0.6C135.5,100.2,135.9,99.8,135.5,99.9z"/>
<path class="st4" d="M132.8,91.1c0,0.1-0.1,0.2-0.2,0.1c-0.2,0-0.3-0.2-0.3-0.3c0-0.1,0-0.1,0.1-0.1c0,0,0,0,0,0
	C132.6,90.8,132.8,90.9,132.8,91.1z"/>
<path class="st4" d="M138.3,88.5c0.2,0.1,0.4,0.1,0.4,0.3s-0.1,0.2-0.2,0.1c-0.1-0.1-0.4-0.1-0.4-0.3
	C138.1,88.5,138.2,88.5,138.3,88.5z"/>
<path class="st4" d="M134.8,89.5h0.4c0,0.2,0,0.4-0.2,0.4C134.8,89.9,135,89.5,134.8,89.5z"/>
<path class="st5" d="M138.9,92.7c-0.1,0-0.1,0-0.1-0.1s0.1-0.1,0.1-0.1L138.9,92.7z"/>
<path class="st5" d="M140.7,89.1h-0.1C140.6,89.1,140.7,89,140.7,89.1C140.7,89,140.8,89,140.7,89.1z"/>
<path class="st5" d="M148.4,91v-0.2C148.6,90.9,148.6,90.9,148.4,91z"/>
<path class="st5" d="M140.7,92.9L140.7,92.9l0.1-0.1L140.7,92.9z"/>
<path class="st0" d="M156.2,99.8c0,0-0.1,0,0-0.1S156.2,99.6,156.2,99.8L156.2,99.8z"/>
<path class="st5" d="M137.6,93.7l0.1,0.1C137.6,93.8,137.5,93.7,137.6,93.7z"/>
<path class="st5" d="M105.3,88L105.3,88L105.3,88z"/>
<path class="st2" d="M71.5,82.3L71.5,82.3L71.5,82.3L71.5,82.3L71.5,82.3z"/>
<path class="st5" d="M147,90.5c0.3-0.1,0.6,0,0.8,0.2C147.5,90.7,147.2,90.7,147,90.5z"/>
<path class="st5" d="M141.4,90.3c0.1,0.1,0.1,0.2,0,0.3c-0.1,0-0.1-0.1-0.1-0.2S141.4,90.4,141.4,90.3z"/>
<path class="st5" d="M138.1,93.5h0.1c0,0.1-0.1,0.2-0.2,0.1C137.9,93.5,138.1,93.5,138.1,93.5z"/>
<path class="st5" d="M146.6,90.7L146.6,90.7L146.6,90.7C146.7,90.6,146.7,90.7,146.6,90.7C146.7,90.7,146.7,90.6,146.6,90.7z"/>
<path class="st5" d="M139.7,89.1L139.7,89.1C139.7,89.2,139.7,89.2,139.7,89.1C139.6,89.2,139.7,89.2,139.7,89.1L139.7,89.1z"/>
<path class="st8" d="M53.1,75.6c-0.1,0.1-0.2,0.2-0.3,0.3s-0.2,0-0.2,0c0.3-0.4-0.3-0.3-0.3-0.5c0-0.1,0-0.2,0.1-0.3c0,0,0,0,0,0
	c0.2-0.1,0.4-0.2,0.7-0.3c0.5,0,1-0.3,1.3-0.7c0.2-0.2,0.4-0.4,0.7-0.3c0.2,0,0.3,0,0.4,0.1c0.1,0.1,0,0.3-0.1,0.4s0.1,0.4,0.1,0.6
	c0,0.3,0,0.5,0,0.8c0,0.2-0.2,0.3-0.3,0.4s-0.2-0.1-0.3-0.2c-0.3-0.2-0.7-0.1-0.9,0.2c0,0.1-0.1,0.1-0.1,0.2
	c-0.1,0.2-0.1,0.6-0.5,0.4S52.7,76.5,53,76C53.1,75.9,53.1,75.7,53.1,75.6z"/>
<path class="st8" d="M56.1,79.1c-0.6,0.1-1.2,0-1.8-0.2c-0.5-0.1-1-0.2-1.5-0.1c-0.6,0-0.7-0.3-0.7-0.8c0-0.2,0.1-0.2,0.3-0.2
	c0.8,0.1,1.7,0.2,2.6,0.1c0.2,0,0.5,0.1,0.4,0.4C55.4,78.7,55.9,78.7,56.1,79.1z"/>
<path class="st8" d="M63.2,74.2c0,0.5-0.3,0.6-0.9,0.6c-0.6,0-1.3,0-1.9,0.1c-0.2,0-0.4,0.2-0.4-0.2s-0.2-0.6,0.3-0.6
	c0.8,0,1.7-0.2,2.5-0.4C63.4,73.5,63.2,74,63.2,74.2z"/>
<path class="st7" d="M71.2,73.7c0.2,0,0.1,0.3,0.3,0.4c0.2,0,0.5,0.1,0.7,0.1h-1.7c0-0.2,0.2-0.4,0-0.6c-0.1-0.2-0.1-0.4,0-0.6
	c0.2-0.2,0.4-0.1,0.6,0c0.2,0.1,0.5,0.2,0.7-0.1c0.1-0.1,0.2,0,0.3-0.1c0.5-0.1,0.9,0.3,1.3,0.1c0.3-0.1,0.2,0.4,0.2,0.4
	c-0.3,0.1-0.5,0.4-0.9,0.3C72.2,73.4,71.7,73.4,71.2,73.7z"/>
<path class="st8" d="M62.2,79.9c0-0.3-0.3-0.6,0.2-0.8c0.2-0.1,0.6-0.2,0.7,0.1c0.2,0.3,0.2,0.7,0,1.1c-0.5,0.6-1.3,0.8-2,0.5
	c-0.1-0.1-0.3-0.1-0.3-0.2s0.2-0.2,0.3-0.2s0.6,0,0.5-0.4l0,0L62.2,79.9L62.2,79.9L62.2,79.9L62.2,79.9z"/>
<path class="st8" d="M60,73.9c-0.1-0.7,0-0.9,0.6-0.9c0.8,0,1.6-0.3,2.3-0.7c0.1,0,0.2-0.2,0.3,0c0.1,0.1,0.1,0.3,0,0.4
	c-0.4,0.3-0.7,0.8-1.2,0.6c-0.1,0-0.2,0-0.2,0C61.3,73.9,60.5,73.6,60,73.9z"/>
<path class="st7" d="M73.1,80.4c-0.3-0.4-0.2-0.6,0.1-0.7c0.2,0,0.3,0,0.2,0.2c0,0.1,0,0.2,0,0.2c0.3,0.5,0,0.7-0.4,0.8
	c-0.1,0.1-0.2,0.3-0.4,0.1s-0.1-0.3,0-0.5c-0.6-0.1-1.3,0.3-2-0.2C71.5,79.9,72.2,80.2,73.1,80.4z"/>
<path class="st7" d="M61.6,79.7c-0.4-0.1-0.8-0.2-0.9,0.4c0,0.1-0.2,0.2-0.3,0.2c0,0,0,0-0.1,0c-0.1-0.1-0.1-0.3,0-0.4
	c0,0,0,0,0.1-0.1c0.2-0.1,0.4-0.3,0.3-0.6c0-0.2,0.8-0.5,0.9-0.3c0.1,0.1,0.1,0.2,0,0.3c0,0,0,0,0,0C61.5,79.3,61.6,79.5,61.6,79.7z
	"/>
<path class="st7" d="M61.7,77.1c-0.2,0.4-0.4,0.7-0.9,0.5c-0.1,0-0.3,0-0.4,0c-0.2,0-0.4,0.2-0.4-0.1c0-0.2,0.2-0.2,0.4-0.2
	C60.8,77.2,61.3,77.1,61.7,77.1z"/>
<path class="st8" d="M60.2,78.6c-0.2,0-0.2,0-0.2-0.1s-0.1-0.3,0.2-0.4c0.2,0,0.5-0.1,0.7-0.2c0.2-0.2,0.4,0.1,0.4,0.2
	s-0.2,0.2-0.3,0.2C60.7,78.4,60.4,78.3,60.2,78.6z"/>
<path class="st7" d="M72,77.7c0.1,0.1,0.2,0.2,0.3,0.2c0.2,0,0.2,0.2,0.2,0.3c0,0.2-0.1,0.1-0.2,0.1c-0.1,0-0.4-0.1-0.4-0.3
	C72,78,72,77.9,72,77.7z"/>
<path class="st7" d="M73.1,77.5c0.1,0.1,0.4,0,0.4,0.2c0,0.1,0,0.2-0.2,0.2s-0.4-0.1-0.5-0.3C72.8,77.4,72.9,77.5,73.1,77.5z"/>
<path class="st7" d="M63.2,77.7c-0.3-0.2-0.4,0.2-0.7,0.1C62.7,77.5,63,77.4,63.2,77.7z"/>
<path class="st7" d="M69.2,80.3c-0.2-0.1-0.4-0.1-0.3-0.3c0-0.1,0.1-0.2,0.2-0.2c0.1,0,0.1,0.1,0.1,0.1c0,0,0,0.1,0,0.1
	C69.2,80.1,69.3,80.2,69.2,80.3z"/>
<path class="st7" d="M61.7,79.9L61.7,79.9C61.7,79.8,61.7,79.9,61.7,79.9L61.7,79.9z"/>
<path class="st7" d="M160.5,63.3c0.1-0.1,0.2-0.1,0.2-0.1c0.1,0,0.4,0,0.4-0.2c0-0.1,0-0.2-0.1-0.2c0,0,0,0,0,0
	c-0.2,0-0.4-0.1-0.6,0c-0.6,0.6-1.4,0.2-2,0.2c-0.1,0-0.1-0.1-0.2-0.2s0.1-0.2,0.2-0.2c0.6-0.1,1.2-0.2,1.9-0.2c0.2,0,0.4,0,0.3-0.3
	s-0.1-0.3,0.1-0.3s0.5-0.1,0.6,0.2c0,0.4,0,0.8,0,1.2c0,0.1-0.1,0.2-0.2,0.2c0,0-0.1,0-0.1,0L160.5,63.3z"/>
<path class="st7" d="M162.8,56.3c-0.3,0.3-0.6,0.3-0.8,0.7s-0.4,0.1-0.7,0c-0.2-0.1-0.4-0.1-0.6,0c-0.1,0.1-0.3,0.4-0.5,0
	s-0.2-0.2,0.2-0.5c0-0.1-0.1-0.1-0.1-0.1l-0.2-0.2C161,56,161.9,56.1,162.8,56.3z"/>
<path class="st8" d="M159.6,69.2c-0.2,0-0.3,0-0.5,0c-0.2-0.1-0.5-0.2-0.5,0.3c0,0.1-0.1,0.2-0.3,0.2s-0.1-0.2-0.1-0.3s0-0.3,0-0.5
	c0-0.4-0.1-0.8,0.7-0.4l-0.4-0.6c0.4-0.1,0.7-0.1,1.1,0c0.2,0,0.4,0.1,0.4,0.3c0,0,0,0,0,0c0,0.3-0.2,0.1-0.4,0.2h-0.2
	C159.6,68.6,159.3,68.9,159.6,69.2z"/>
<path class="st8" d="M158.3,72.3c0.8,0.3,1,0.8,0.6,1.4c-0.1,0.2-0.2,0.3-0.4,0.3s-0.2-0.2-0.2-0.4c0-0.4,0-0.8,0-1.2
	C158.2,72.4,158.3,72.3,158.3,72.3z"/>
<path class="st8" d="M160.2,68.2c0.3,0,0.7,0,1,0.2c0.2,0,0.2,0.2,0.2,0.3s-0.2,0.1-0.3,0.1C160.7,68.8,160.4,68.7,160.2,68.2z"/>
<path class="st7" d="M159.9,56.9c-0.2,0-0.4-0.2-0.6-0.1s-0.3,0-0.3-0.2s-0.1-0.3,0.1-0.4s0.2-0.1,0.3,0.1S159.9,56.6,159.9,56.9
	L159.9,56.9z"/>
<path class="st7" d="M160.5,67.8c-0.2-0.1-0.4-0.2-0.4-0.4s0.2-0.2,0.4-0.2s0.3,0.2,0.3,0.4S160.7,67.8,160.5,67.8z"/>
<path class="st7" d="M158.5,65.8c0.8-0.2,0.8-0.2,1.5,0.2C159.5,66,159,65.7,158.5,65.8z"/>
<path class="st7" d="M165.7,57.1c0.3-0.5,0.8-0.2,1.2-0.3C166.6,57.2,166.1,57.3,165.7,57.1z"/>
<path class="st7" d="M159.5,62c-0.3,0.1-0.6,0.1-0.8,0.2c-0.1,0-0.3,0-0.3-0.1c0,0,0,0,0,0c0-0.2,0.2-0.1,0.3-0.1
	C158.9,62,159.2,61.7,159.5,62z"/>
<path class="st7" d="M169.2,55.8h-0.8c-0.1,0-0.2,0-0.2-0.1c0-0.1,0.1-0.2,0.2-0.1c0,0,0,0,0,0l0.8,0.2L169.2,55.8z"/>
<path class="st7" d="M164.5,57.3c0.3-0.2,0.8-0.3,1.1-0.1C165.3,57.4,164.8,57.4,164.5,57.3z"/>
<path class="st7" d="M160.1,72.9c-0.1,0.2-0.1,0.3-0.3,0.3s-0.3,0-0.3-0.2s0.2-0.2,0.3-0.2C159.9,72.7,160,72.7,160.1,72.9
	C160.1,72.8,160.1,72.9,160.1,72.9z"/>
<path class="st7" d="M161.2,65.7c-0.4,0.2-0.8-0.2-1.2-0.2C160.4,65.4,160.8,65.7,161.2,65.7z"/>
<path class="st7" d="M163.6,56.3c-0.1,0.2-0.4,0.2-0.5,0.1c0,0,0,0-0.1-0.1c-0.1-0.1-0.1-0.2,0-0.2S163.5,56.1,163.6,56.3z"/>
<path class="st7" d="M168.5,56.2c0.1,0.1,0.3,0,0.3,0.2s-0.1,0.2-0.3,0.2s-0.2-0.1-0.3-0.2S168.4,56.2,168.5,56.2z"/>
<path class="st8" d="M164.6,56.3c0.2,0,0.4,0,0.4,0.2s-0.1,0.2-0.2,0.2s-0.3-0.1-0.4-0.3S164.6,56.3,164.6,56.3z"/>
<path class="st7" d="M159.1,74.5c0.1,0,0.2,0.1,0.2,0.2s-0.1,0.2-0.2,0.2s-0.2-0.1-0.2-0.2S159,74.5,159.1,74.5z"/>
<path class="st7" d="M159.9,56.9L159.9,56.9L159.9,56.9z"/>
<path class="st9" d="M111,71.7c-0.5,0.7-1.5,0.8-2.2,0.3c0,0-0.1,0-0.1,0s-0.4,0.1-0.4-0.1s-0.1-0.7,0-0.8c0.3-0.2,0.6-0.6,1.1-0.6
	c0.5,0.2,1.1,0.2,1.7,0c0.1,0,0.4-0.1,0.4,0.1c0.1,0.6,0.3,0.2,0.5,0.1c0.5-0.2,1.1-0.4,1.6-0.5c0,0.2-0.2,0.3,0.2,0.3
	c1.6,0,3.1,0,4.7,0c0.4,0,0.6,0.1,0.5,0.5c0,0.1,0,0.3,0,0.4c0,1.2,0,1.2-1.2,1.3c-0.4,0-0.8,0-1.3,0c0.5-0.6,1-0.1,1.5-0.3
	c-0.2-0.2-0.4-0.3-0.7-0.3c-1,0-2,0-3-0.2c-0.5,0.1-1.1,0.1-1.7,0.2c-0.1,0-0.2,0-0.2,0.1c0,0,0,0,0,0c0,0.5-0.3,0.4-0.6,0.4
	s-0.3-0.3-0.3-0.5c0-0.2-0.1-0.3-0.2-0.4c-0.1-0.1-0.3-0.1-0.2-0.3s0.2-0.2-0.1-0.3s-0.3-0.1-0.4,0.1s0.1,0.2,0.1,0.3
	C110.9,71.5,110.9,71.6,111,71.7z M109.6,72.1c0.6,0.2,0.4-0.6,0.9-0.5C109.8,71.5,109.8,71.5,109.6,72.1L109.6,72.1z"/>
<path class="st8" d="M115.7,75.3c0.1-0.2-0.2-0.5,0.3-0.5c0.1,0,0-0.2,0-0.3s-0.1-0.4,0.1-0.6s0.3-0.5,0.6,0
	c0.3,0.4,0.9,0.4,1.3,0.1c0,0,0,0,0.1-0.1c0.2-0.2,0.2-0.1,0.3,0c0.3,0.3,0.5,0.7,0.5,1.1c0,0.1,0.1,0.3-0.1,0.3s-0.2-0.1-0.3-0.2
	c-0.3-0.5-0.6-0.6-1.2-0.3c-0.2,0.1-0.3,0.5-0.6,0.2c0,0-0.1,0-0.1,0c0.1,0.4-0.2,0.5-0.5,0.6c-0.1,0,0,0.2-0.2,0.2
	c-0.1,0-0.2-0.2-0.2-0.3C115.6,75.4,115.7,75.4,115.7,75.3z"/>
<path class="st8" d="M108.2,75.5c0-0.2,0-0.4,0-0.6c-0.1-0.4,0.2-0.5,0.5-0.6s0.4,0.3,0.6,0.5s-0.4,0.6-0.5,0.6s-0.2,0-0.3,0.1
	s0,0.2,0,0.3c0.1,0.1,0.2,0.2,0.3,0.4c0,0.2,0,0.3-0.2,0.4s-0.4,0-0.4-0.3S108.1,75.8,108.2,75.5L108.2,75.5z"/>
<path class="st8" d="M117,78.2c0-0.3,0.2-0.5-0.1-0.7c-0.2-0.1,0-0.4,0.2-0.5s0.2,0.1,0.3,0.2s0.2,0.2,0.4,0.2s0.3-0.2,0.4,0.1
	s0,0.3-0.2,0.4S117.3,78,117,78.2z"/>
<path class="st7" d="M116.7,75.6c0.4-0.1,0.8-0.1,1.1,0.1c0.3,0.2,0.2,0.4,0.1,0.6s-0.2,0.2-0.4,0.2C117,76.3,117,75.9,116.7,75.6z"
	/>
<path class="st8" d="M111.1,75.3c0.2,0,0.3,0,0.3,0.2c0,0.1,0,0.3-0.2,0.3c0,0,0,0-0.1,0c-0.3,0.1-0.6,0.1-0.8,0.2
	c-0.2,0.1-0.4,0-0.5-0.2c-0.1-0.3,0.2-0.3,0.3-0.4C110.4,75.4,110.7,75.3,111.1,75.3z"/>
<path class="st7" d="M110.3,74.2c-0.3,0.1-0.6,0.2-0.9,0.2C109.7,73.8,109.8,73.8,110.3,74.2z"/>
<path class="st7" d="M118.8,77.5c-0.1,0.2-0.2,0.2-0.4,0.3s-0.2-0.1-0.2-0.2s0-0.4,0.2-0.4C118.6,77.2,118.8,77.3,118.8,77.5z"/>
<path class="st9" d="M206.7,68.9c-0.3-0.1-0.6,0-0.8-0.2c-0.1,0-0.1,0-0.2,0c-0.5,0.4-1.1,0.1-1.6-0.1c-0.4-0.2-0.6-0.5-0.6-0.9
	c-0.1-0.5,0-1,0-1.4c0-0.2,0.1-0.4,0.3-0.4c0,0,0,0,0.1,0c0.6,0,1.2-0.1,1.8-0.1c0.1,0,0.1,0,0.2,0c0.6,0.1,0.9,0.3,0.9,0.9
	S206.7,68.1,206.7,68.9z"/>
<path class="st8" d="M214.4,68.2c0.3,0.1,0.5,0.4,0.5,0.8c0,0,0,0.1,0,0.1c0,0.1-0.1,0.2-0.1,0.2c-0.5-0.1-0.9,0.2-1.4,0
	c-0.3-0.1-0.6-0.1-0.9,0.2c0.8,0,1.5,0.2,2.2,0.6c-0.5,0-1,0-1.5,0s-0.8,0.2-1.3,0c-0.2,0-0.3-0.2-0.3-0.5c0,0,0,0,0,0
	c0-0.6,0-1.1,0-1.7c0-0.3,0.1-0.4,0.3-0.4c0.2,0,0.4-0.1,0.6-0.1c0.5,0.1,1,0.1,1.4,0c0.2,0,0.4,0,0.6,0.2c0.1,0.1,0.4,0.2,0.3,0.4
	S214.5,68.1,214.4,68.2z"/>
<path class="st7" d="M211.5,65.5c0.4-0.2,0.9-0.1,1-0.6c0.3,0.1,0.5,0.3,0.6,0.5c0.1,0.3,0.8,1-0.3,0.8c-0.1,0-0.2,0.1-0.2,0.3
	c0.2,0.1,0.5,0.1,0.7,0c0.1,0,0.2-0.1,0.3,0.1c0,0.1,0,0.2,0,0.3c-0.1,0.1-0.2,0-0.3,0c-0.1,0-0.3-0.1-0.4-0.1
	c-0.6,0-0.9-0.3-0.8-0.9S212,65.4,211.5,65.5z"/>
<path class="st7" d="M211.6,61.8c-0.4-0.1-0.7-0.3-1.1-0.4c0.1-0.2,0.2-0.2,0.3-0.2l1.2,0.5c0,0,0.2,0.1,0.1,0.1
	c-0.3,0.1,0.4,0.7-0.3,0.5c0.1,0.1,0.2,0.1,0.2,0.2c0.1,0.1,0.1,0.1,0.1,0.2c0,0.1-0.1,0.1-0.2,0.1c-0.3,0-0.5-0.2-0.6-0.4
	c-0.1-0.3-0.3-0.3-0.5-0.1s-0.5,0.1-0.7-0.1s-0.2-0.2-0.1-0.4s0.2-0.1,0.4-0.1C210.7,61.9,211.1,61.9,211.6,61.8
	c0,0.1,0.1,0.1,0.2,0L211.6,61.8z"/>
<path class="st7" d="M206,70.5l-1.2-0.2c-0.1,0-0.3,0-0.3-0.2c0-0.2,0.2-0.3,0.3-0.3c0.5,0.1,1,0.2,1.5,0.3c0.1,0,0.1,0.1,0.1,0.2
	S206.2,70.5,206,70.5z"/>
<path class="st7" d="M214,66.8c0.4-0.1,0.6-0.2,0.4-0.5c0.4,0.1,0.7,0.3,0.5,0.7S214.3,67,214,66.8z"/>
<path class="st7" d="M214.9,63c-0.3,0.1-0.7,0.1-1,0c-0.1,0-0.2,0-0.2-0.2c0-0.1,0.1-0.2,0.2-0.2C214.3,62.7,214.6,62.8,214.9,63z"
	/>
<path class="st7" d="M204.7,64.4c-0.1-0.1-0.4,0-0.4-0.2s0.2-0.2,0.3-0.2c0.1,0,0.3,0.1,0.3,0.2c0,0,0,0,0,0
	C204.9,64.3,204.9,64.4,204.7,64.4z"/>
<path class="st7" d="M213.1,63.5c0.2-0.1,0.5,0,0.6,0.2c0,0.1,0,0.2-0.1,0.2C213.3,63.9,213.1,63.7,213.1,63.5z"/>
<path class="st7" d="M204.4,69.8c0,0.1,0,0.3-0.2,0.2c-0.1,0-0.2-0.1-0.2-0.2c0-0.1,0.1-0.2,0.3-0.3
	C204.4,69.6,204.4,69.7,204.4,69.8z"/>
<path class="st8" d="M89.8,70.7c0.2,0.5,0.3,0.5,1,0v2.4c0,0.2-0.1,0.2-0.2,0.2c-0.3,0-0.5,0-0.8,0c-0.2-0.1-0.4,0-0.5,0.2
	c-0.2,0.3,0.2,0.3,0.1,0.5c-0.2,0-0.4-0.1-0.5-0.1s-0.4-0.2-0.4,0.2c0,0.3-0.3,0.3-0.6,0.3c-0.2,0-0.2-0.2-0.2-0.4s-0.1-0.4-0.4-0.5
	c-1.4-0.5-2.8-1-4.2-1.3c-0.2,0-0.3-0.1-0.4-0.3c0.4-0.2,0.9-0.2,1.3-0.1c0.8,0.3,1.6,0.5,2.5,0.5c0.6,0,1.1-0.3,1.5-0.7
	c0.2-0.2,0.3-0.4,0.6-0.3c0.6,0.2,0.8-0.2,1.1-0.6L89.8,70.7z M89.4,72.1c0.2,0.6,0.5,0.6,1,0h-0.8c0-0.1,0-0.3-0.2-0.3
	c-0.3,0-0.6,0.2-0.7,0.5C89,72.3,89.2,72.2,89.4,72.1z"/>
<path class="st9" d="M78.6,74.8c0-0.5,0-0.9,0-1.3c0-0.6,0.6-1.1,1.4-1.1c0.5,0,1,0.1,1.5,0.2c0.2,0,0.3,0.1,0.3,0.2
	c0,0.4,0,0.8,0,1.1c0,0.2-0.2,0.2-0.3,0.2c-0.3-0.1-0.7-0.1-1-0.1c-0.5,0.1-1,0.2-1.5,0.1C78.6,74.1,78.8,74.6,78.6,74.8z"/>
<path class="st8" d="M88.6,75.5c0.2-0.4,0.4-0.5,0.8-0.3c0.3,0.2,0.6,0.2,0.9,0c0,0,0-0.1,0.1-0.1c0.1-0.1,0.1-0.2,0.2-0.1
	c0.1,0,0.2,0.2,0.2,0.3c0,0.5,0,1,0,1.4c0,0.2,0,0.3-0.2,0.2c-0.3,0-0.5-0.1-0.8-0.2c-0.1,0-0.3-0.1-0.2-0.4c0.2-0.5,0-0.8-0.6-0.9
	L88.6,75.5z"/>
<path class="st8" d="M85.4,79.8c-0.2,0.1-0.4,0.4-0.7,0.1c-0.1-0.1-0.2,0.1-0.2,0.1s-0.5,0.2-0.8,0.3c0,0-0.1,0-0.1,0
	c-0.1-0.3-0.1-0.7-0.1-1.1c0.1-0.1,0.2-0.2,0.2,0c0.2,0.6,0.7,0.3,1,0.3S85.2,79.6,85.4,79.8z"/>
<path class="st7" d="M79.4,76.7c-0.2-0.3,0.1-0.6,0.1-0.9c0-0.1,0.2-0.1,0.2-0.1s0.4,0.1,0.6,0.1s0.3,0.2,0.2,0.4
	c-0.1,0.2-0.3,0.7-0.8,0.5C79.5,76.7,79.4,76.7,79.4,76.7L79.4,76.7z"/>
<path class="st9" d="M86.9,78.8c0.3-0.1,0.5-0.3,0.3-0.6c-0.1-0.2,0.1-0.3,0.2-0.2c0.3,0.1,0.5,0.3,0.6,0.6c0.1,0.4,0,0.5-0.4,0.4
	C87.4,79,87.2,79,86.9,78.8z"/>
<path class="st7" d="M86.9,76.7c0.2,0.1,0.2,0.4,0.3,0.6c0.1,0.1,0.1,0.3,0,0.5l0,0c-0.1,0-0.2,0-0.3-0.1c-0.1-0.2-0.3-0.4-0.4-0.6
	C86.6,77,86.8,76.8,86.9,76.7z"/>
<path class="st7" d="M80.7,77.4c-0.3,0.6-0.5,0.7-1,0.4C80,77.6,80.3,77.4,80.7,77.4z"/>
<path class="st7" d="M87,79.9c-0.2-0.1-0.3-0.1-0.4-0.3s0.1-0.2,0.2-0.2c0.2,0,0.3,0.1,0.3,0.3S87.2,79.9,87,79.9z"/>
<path class="st7" d="M79.4,78.4c0.2,0,0.2,0.1,0.2,0.2s0,0.2-0.2,0.2c-0.2,0-0.3,0-0.3-0.2C79.1,78.5,79.2,78.4,79.4,78.4z"/>
<path class="st7" d="M83.6,78.3c0.1,0,0.1,0.1,0.2,0.1c0.1,0.1,0.3,0.1,0.4,0.2c0,0,0,0.1-0.1,0.1c-0.2,0-0.4,0-0.5-0.2
	C83.6,78.5,83.6,78.4,83.6,78.3L83.6,78.3z"/>
<path class="st7" d="M81.1,72.1c0.3-0.1,0.5-0.1,0.7,0.1s0,0.2-0.1,0.2C81.5,72.4,81.4,72.2,81.1,72.1z"/>
<path class="st7" d="M79.4,76.7c0,0.1,0.2,0.3,0,0.4c-0.1,0-0.2,0-0.3-0.1c0,0,0,0,0,0C79.1,76.7,79.3,76.8,79.4,76.7L79.4,76.7z"/>
<path class="st9" d="M196.8,63.6c-0.3,0-0.5,0.1-0.8,0.3c-0.2,0.1-0.3,0.3-0.2,0.5c0,0,0,0,0,0c0,0.2,0.3,0.4,0,0.6
	c-0.1,0.1,0.1,0.1,0.3,0.1c0.3-0.2,0.7-0.2,1-0.1c0.4,0,0.7,0.3,0.7,0.7c-0.8,0-1.6,0-2.3-0.3c-0.3-0.1-0.5,0-0.6,0.3
	s0.2,0.3,0.4,0.3c0.4,0.2,0.9,0.3,1.4,0.4c-0.8,0.4-1.8,0.3-2.5-0.3c-0.7-0.4-1.5-0.8-2.3-1.1c-0.2-0.1-0.5-0.1-0.7,0
	c-0.1,0.1-0.3,0.1-0.5,0c-0.3-0.2-0.6-0.4-0.9-0.5c0.4-0.2,0.7-0.7,1.3-0.7c-0.3-0.2-0.6-0.1-0.9-0.3c0.7-0.5,1.3-0.9,2-1.4
	c0.1-0.1,0.3-0.1,0.4,0c0.4,0.4,1,0.5,1.5,0.8c0.6,0.3,1.2,0.4,1.9,0.6C196.2,63.4,196.5,63.5,196.8,63.6z"/>
<path class="st8" d="M197.9,71.2c0.4,0,0.4,0.4,0.4,0.6s-0.4,0.1-0.6,0.1s-0.4-0.4-0.7,0.1c0,0.1-0.6-0.1-0.8-0.4
	c-0.1-0.2-0.3-0.2-0.5-0.2c-0.5,0.1-0.9-0.2-1.3-0.5c0.5-0.1,1-0.2,1.4-0.1c0.1,0,0.3,0.1,0.4-0.1c0-0.1-0.1-0.2,0.1-0.2
	s0.2,0.1,0.2,0.2c0,0.4,0.3,0.3,0.5,0.2c0.4-0.2,0.6-0.2,0.6,0.3C197.7,71.2,197.8,71.2,197.9,71.2L197.9,71.2L197.9,71.2z
	 M196.5,70.8L196.5,70.8L196.5,70.8L196.5,70.8z"/>
<path class="st8" d="M192.5,71.1c-0.1,0.4-0.5,0.7-0.9,0.6c0,0-0.1,0-0.1,0c-0.6-0.2-1.1-0.2-1.7-0.2c-0.2,0-0.3,0-0.4-0.2
	c-0.1-0.2,0.2-0.2,0.3-0.3c0.4-0.3,0.8-0.5,1.2-0.5c0.2-0.1,0.6-0.1,0.6,0.4c0,0.3,0.1,0.4,0.4,0.2C192,71,192.2,71,192.5,71.1z"/>
<path class="st8" d="M196.9,69.1l-1.4-0.1c-0.1,0-0.3,0-0.3-0.2s0.1-0.2,0.3-0.2l2.6,0.1c0.4,0,0.2,0.4,0.2,0.6
	C197.9,69.1,197.4,69.1,196.9,69.1z"/>
<path class="st8" d="M198.4,69.3c0,0.1,0,0.2,0,0.3s-0.1,0.3-0.3,0.2c-0.4-0.3-0.9-0.2-1.1,0.1c-0.1,0.2-0.3,0.1-0.4,0
	c-0.1-0.1-0.1-0.2-0.1-0.3c0,0,0,0,0.1-0.1c0.3-0.2,0.1-0.3,0-0.5l0.4-0.1C197.4,69.3,197.9,69.3,198.4,69.3z"/>
<path class="st7" d="M198.2,66.9c-0.1-0.1-0.2-0.2-0.2-0.3c-0.1-0.1,0-0.2,0.1-0.2s0.1-0.1,0.2-0.1c0.2,0.2,0.1,0.5,0.1,0.7
	s-0.1,0.2-0.3,0.2c-0.3,0-0.6-0.2-1,0c-0.1,0-0.1,0-0.1-0.1c0,0,0,0,0,0c0-0.1,0-0.2,0.1-0.2L198.2,66.9z"/>
<path class="st7" d="M188.8,71.6c0,0.4-0.2,0.8-0.5,1c-0.1,0.1-0.3,0.1-0.4,0c-0.1-0.1,0.1-0.3,0.1-0.3
	C188.4,72.2,188.4,71.7,188.8,71.6z"/>
<path class="st7" d="M198.3,72.4c-0.4,0.9-0.4,1-1.3,0.7C197.5,73.2,197.8,72.8,198.3,72.4z"/>
<path class="st7" d="M189.4,73.6c-0.1,0.2-0.2,0.3-0.4,0.3s-0.2-0.2-0.3-0.4c0-0.1,0.1-0.2,0.2-0.2c0,0,0.1,0,0.1,0
	C189.2,73.3,189.4,73.3,189.4,73.6z"/>
<path class="st7" d="M187.7,74.1l-0.7,0.4c0-0.2-0.1-0.5,0-0.6S187.4,73.9,187.7,74.1z"/>
<path class="st4" d="M198.4,69.3c-0.5,0-1-0.1-1.4-0.2v-0.1C197.4,69.1,197.9,69.1,198.4,69.3C198.4,69.3,198.4,69.3,198.4,69.3z"/>
<path class="st8" d="M197.7,63.7c0.2,0,0.4-0.2,0.5,0.2c0,0.1,0,0.2-0.2,0.2C197.8,64.2,197.7,64,197.7,63.7z"/>
<path class="st7" d="M195.5,66.9c0.3-0.1,0.5-0.1,0.6,0.2C195.9,67.3,195.6,67.2,195.5,66.9z"/>
<path class="st8" d="M98.2,72.4c0.2,0.1,0,0.3,0.1,0.4s0.2,0.2,0.1,0.4s-0.4,0-0.5-0.1c-0.4-0.3-0.9-0.5-1.4-0.5c-0.4,0-0.7,0-1.1,0
	c-0.1,0-0.3,0-0.2-0.2s-0.2-0.5,0.2-0.6c0.6-0.2,1.2-0.4,1.9-0.3c0.2,0,0.5,0,0.7-0.1c0.4-0.1,0.6,0,0.5,0.4
	C98.4,72,98.6,72.2,98.2,72.4C98.3,72.3,98.2,72.2,98.2,72.4L98.2,72.4z"/>
<path class="st7" d="M97.1,69.6c-0.2-0.2-0.5,0.1-0.5-0.3s0.2-0.4,0.4-0.4c0.4-0.1,0.8-0.1,1.2-0.2c0.1,0,0.1,0,0.2,0.1
	s0,0.2-0.1,0.2c-0.1,0-0.3,0.1-0.4,0.1c-0.3,0.2-0.6,0.3-0.3,0.8c0.1,0.1,0.1,0.2,0.1,0.4c0.1,0.2,0,0.3-0.2,0.2
	c-0.5-0.2-1,0-1.3,0.3c-0.2,0.1-0.3,0.3-0.5,0.3s-0.4,0-0.5-0.2s0.2-0.2,0.3-0.3C96,70.2,96.6,70,97.1,69.6z"/>
<path class="st8" d="M95.8,77.7c-0.2-0.4-0.2-0.7,0.3-0.8c0.4-0.1,0.9,0.2,1,0.6c0,0.1,0.1,0.2,0,0.3c-0.5,0.3-0.8,0.9-1.5,1
	c-0.3,0-0.4,0-0.4-0.3c0-0.2,0-0.4,0.1-0.6C95.3,77.5,95.6,77.8,95.8,77.7z"/>
<path class="st7" d="M98.2,78.4h-0.2c-0.3,0-0.5-0.3-0.5-0.6c0,0,0-0.1,0-0.1c0-0.1,0.1-0.3,0.2-0.3c0.1,0,0.2,0.1,0.3,0.2
	c0.1,0.2,0.3,0.3,0.4,0.5s0.2,0.3,0.2,0.3S98.3,78.4,98.2,78.4z"/>
<path class="st7" d="M96,75.7c0.2-0.3,0.6-0.5,1-0.4c0.1,0.1,0.1,0.2,0,0.3s-0.2,0.2-0.2,0.1C96.6,75.3,96.3,75.6,96,75.7z"/>
<path class="st7" d="M97.8,74.5c-0.2,0.2-0.5,0.3-0.7,0.4c-0.1,0-0.2,0-0.2-0.1c0,0,0-0.1,0-0.1c0-0.2,0.1-0.2,0.2-0.2H97.8z"/>
<path class="st8" d="M178.9,63.6c0.4,0,0.6,0.2,0.8,0.4s0.4,0.3,0.4-0.1c0-0.3,0.3-0.2,0.3-0.3c-0.3-0.3-0.3-1-1.1-0.9l0,0
	c-0.4-0.3-0.8,0.2-1.3,0c0.6-0.5,1.3-0.9,2-1.2c0.3-0.1,0.5,0,0.5,0.4c0,1.8,0,3.6,0,5.3c0,0.4,0.1,0.6,0.5,0.6s1,0,1.5,0v0.1
	c-0.3,0.3-0.7,0.4-1.1,0.3c-0.4-0.1-0.9-0.1-1.2,0.1c0.7,0.1,1.3,0.1,2,0.2c-0.1,0.3-0.4,0.5-0.8,0.5c-0.7-0.1-1.4,0-2,0.2
	c-0.6,0.2-1.2-0.1-1.4-0.7c0,0,0,0,0-0.1c0.2,0,0.4,0.1,0.5,0.1s0.4,0.2,0.6,0s0-0.4-0.1-0.6c0.2-0.1,0.4-0.1,0.6-0.1
	c0.2,0,0.2-0.2,0.3-0.3s0.1-0.1,0-0.2s-0.3,0-0.3,0.1s-0.3,0.1-0.4,0c-0.5-0.2-1-0.5-1.5-0.2c-0.1,0.1-0.3,0.1-0.3-0.1
	s-0.1-0.6,0.1-0.6c0.4-0.1,0.8-0.1,1.1-0.1c0,0,0.1,0.1,0.1,0.2c0.1,0.1,0.2,0.1,0.2,0.1l0.1,0.1h0.1h-0.1c0-0.1-0.1-0.1-0.2-0.1
	c0.1-0.6,0.8-0.5,1.2-0.9c-0.4,0-0.7-0.2-1.2-0.1s-0.9-0.1-1.3,0c-0.1,0-0.1-0.2-0.1-0.2c0-0.2,0-0.4,0.1-0.6
	c0.2,0.2,0.3,0.6,0.7,0.3l-0.3-0.4c0.4,0,0.9,0,1.3,0c-0.3-0.2-0.7-0.2-0.6-0.6C178.4,63.8,178.6,63.6,178.9,63.6z"/>
<path class="st7" d="M173.9,69.2c0.3-0.7,0.9-1.2,1.7-1.5c0.2,0,0.4,0,0.6,0c0.2,0,0.2,0.2,0.2,0.3s-0.1,0.2-0.2,0.2
	c-0.7,0-0.7,0-0.6,0.6c0,0.4-0.1,0.4-0.4,0.4L173.9,69.2z"/>
<path class="st7" d="M182.6,67.8L182.6,67.8l2.4-0.1c0.1,0,0.2,0,0.2,0.1s-0.1,0.2-0.2,0.1c-0.5-0.2-1,0.2-1.5,0.1
	c0,0-0.1,0-0.1,0.1c0.2,0.4-0.3,0.6-0.1,0.9l0,0c-0.2,0.2-0.5,0.2-0.9,0.1c0.7-0.2,0.5-0.7,0.8-1C183.1,67.9,182.8,67.8,182.6,67.8z
	"/>
<path class="st7" d="M177.7,64.4c-0.6-0.2-0.4-0.7-0.3-1s0.4-0.3,0.7-0.3s0.5,0.1,0.7,0.1s0.2,0,0.3,0.1s-0.1,0.2-0.2,0.2l-0.5,0.1
	c-0.3,0-0.6,0-0.4,0.4C178,64.2,177.9,64.4,177.7,64.4z"/>
<path class="st4" d="M177.7,64.4c0.1-0.1,0.3-0.2,0.2-0.4c-0.2-0.4,0.1-0.4,0.4-0.4l0.5-0.1c0,0,0,0.1,0,0.1c-0.3,0-0.4,0.3-0.4,0.5
	c0,0.3,0.3,0.3,0.6,0.6c-0.4,0-0.9,0-1.3,0l0,0L177.7,64.4L177.7,64.4z"/>
<path class="st7" d="M184.1,68.1c0.1,0,0.4-0.1,0.4,0.1s-0.3,0.2-0.5,0.2s-0.4,0-0.4-0.1S184,68.2,184.1,68.1z"/>
<path class="st7" d="M183.2,69.1c0.3-0.2,0.7-0.2,1,0C183.9,69.2,183.5,69.4,183.2,69.1L183.2,69.1z"/>
<path class="st7" d="M179.3,62.7L179.3,62.7L179.3,62.7c0.2,0.1,0.4,0.2,0.3,0.5s-0.1,0.2-0.2,0.1S179.1,62.9,179.3,62.7z"/>
<path class="st8" d="M177.7,64.5v0.1C177.6,64.6,177.7,64.6,177.7,64.5z"/>
<path class="st8" d="M128.9,70.6c-0.2-0.1-0.5,0.3-0.6-0.1c-0.1-0.4,0-0.8,0.4-1c0.4-0.4,1-0.5,1.5-0.4c0.2,0,0.3,0.3,0.2,0.4
	c-0.4,0.2-0.1,0.3,0,0.5c0.1,0.1,0,0.3-0.1,0.4c0,0-0.1,0-0.2,0C129.7,70.5,129.3,70.6,128.9,70.6z"/>
<path class="st8" d="M133.1,71.6c0.3,0,0.6,0.2,0.4-0.3c-0.1-0.4,0.3-0.4,0.6-0.4c0.5-0.1,0.7,0.3,0.9,0.7s-0.2,0.4-0.4,0.6
	s-0.4,0.2-0.5,0.5c-0.1,0.3-0.6,0.2-0.8,0.2s-0.1-0.3-0.1-0.5S133,71.8,133.1,71.6z"/>
<path class="st7" d="M131.9,69l0.7-0.1c0.1,0,0.2-0.1,0.3,0c0.1,0.1,0,0.2-0.1,0.3c-0.1,0.1-0.2,0.2-0.3,0.1c0,0,0,0,0,0
	C132.3,69.2,132.1,69.1,131.9,69L131.9,69z"/>
<path class="st7" d="M135.6,68.5l-0.7,0.2c-0.1,0-0.2,0-0.3-0.1s0-0.2,0.2-0.2h0.7V68.5z"/>
<path class="st8" d="M134.9,69.4c0,0.1-0.1,0.3-0.2,0.3c-0.1,0-0.2-0.1-0.2-0.2c0,0,0,0,0,0c0-0.2,0.1-0.2,0.2-0.2
	S134.9,69.2,134.9,69.4z"/>
<path class="st8" d="M145.4,70.7c0,0.2,0,0.3-0.1,0.4c-0.1,0.1-0.1,0.3,0,0.5c0.2,0.2,0.2,0.4,0,0.6c-0.2,0.1-0.4,0-0.6,0
	c-0.2,0-0.1-0.2-0.1-0.3c0.1-0.3,0-0.5-0.3-0.7c-0.1,0-0.2-0.1-0.3-0.2c-0.1-0.1-0.3-0.1-0.2-0.3s0.2-0.1,0.4-0.1
	c0.3-0.1,0.5-0.2,0.7-0.3c0.1-0.1,0.3-0.2,0.5-0.2C145.5,70.3,145.4,70.6,145.4,70.7z"/>
<path class="st7" d="M138.3,68c0.7-0.7,0.9-0.7,1.5,0C139.3,67.9,138.8,67.9,138.3,68z"/>
<path class="st7" d="M139.6,73.8c0.1,0.2,0.1,0.3-0.2,0.4s-0.2-0.2-0.2-0.3c0-0.1,0-0.1-0.1-0.2c-0.1-0.1-0.3-0.2-0.2-0.3
	c0.1-0.1,0.2-0.1,0.4-0.1c0.2,0,0.3,0.2,0.3,0.4V73.8z"/>
<path class="st7" d="M138.8,71.3c0.3-0.1,0.6-0.1,0.9-0.2s0.3,0,0.3,0.2s-0.1,0.3-0.2,0.3C139.3,71.8,139.1,71.5,138.8,71.3z"/>
<path class="st8" d="M171.7,65.1c0.4,0.1,0.9,0.2,1,0.6s-0.5,0.5-0.8,0.7c-0.4,0.4-0.9,0.7-1.5,0.8c-0.1,0-0.1,0.1-0.2,0
	c-0.4-0.1-0.8,0-1.2,0.2l-0.4,0.1c-0.4-0.4-1-0.8-1.5-1c-0.1,0-0.2-0.1-0.1-0.3s0.1-0.2,0.3-0.2c0.4,0.2,0.8,0,1.2,0.1
	s1.3-0.4,1.3-0.5s-0.1-0.3,0.1-0.3s0.4,0.1,0.4,0.3s0.2,0.4,0.2,0.7s0.3,0.3,0.5,0.1c0-0.2-0.4-0.2-0.1-0.5c0.3,0.1,0.6,0.1,0.9,0.1
	C171.3,65.6,171.3,65.5,171.7,65.1L171.7,65.1z"/>
<path class="st7" d="M168.4,70.8L168.4,70.8c0.2,0.1,0.5-0.1,0.5,0.2s-0.4,0.3-0.6,0.4s-0.4-0.2-0.3-0.4s0-0.7,0-1s-0.1-0.5,0.3-0.5
	c0.1,0,0.2-0.2,0.1-0.3c-0.5-0.1-0.3-0.5-0.4-0.9c0.3,0.4,0.6,0.1,0.9,0.2c0.1,0,0.3,0.1,0.2,0.2c-0.3,0.3,0,0.4,0.1,0.6
	c0.1,0.1,0.1,0.3,0.1,0.4c-0.1,0.1-0.2,0.1-0.4,0c-0.3-0.1-0.6-0.2-0.4,0.4C168.5,70.2,168.4,70.5,168.4,70.8z M168.6,69L168.6,69
	L168.6,69L168.6,69z"/>
<path class="st7" d="M170.9,65.9c-0.4,0-0.6-0.1-0.5-0.6c0-0.1,0-0.2,0-0.2c-0.3-0.1-0.2-0.3-0.1-0.5s0.4-0.1,0.6-0.1
	c0.3,0.1,0.6,0.2,0.8,0.5l0,0c-0.4,0-0.9,0-0.8,0.7C170.9,65.8,170.9,65.8,170.9,65.9z"/>
<path class="st7" d="M170.4,68.7c-0.2,0-0.4-0.1-0.5-0.3c-0.1-0.2,0.6-0.6,1-0.5c0.2,0,0.4-0.1,0.4,0.2S170.8,68.7,170.4,68.7z"/>
<path class="st6" d="M170.9,65.9c0,0,0-0.1,0-0.1c-0.1-0.7,0.4-0.6,0.8-0.7c-0.4,0.5-0.4,0.6,0.1,1c-0.3,0-0.6,0-0.9-0.1L170.9,65.9
	z"/>
<path class="st7" d="M168.6,67.5l0.4-0.1c0,0.4-0.3,0.7-0.6,0.7c-0.1,0-0.2,0-0.2,0c-0.2-0.1-0.1-0.2,0-0.3S168.4,67.6,168.6,67.5z"
	/>
<path class="st7" d="M168.2,65.2c-0.1,0-0.3-0.1-0.3-0.2c0.1-0.2,0.3-0.3,0.5-0.3c0.1,0,0.2,0.1,0.2,0.2c0,0,0,0,0,0.1
	C168.6,65.2,168.4,65.2,168.2,65.2z"/>
<path class="st7" d="M168.4,71.9c0.2-0.2,0.3-0.4,0.6-0.3c0.1,0,0.1,0.2,0.1,0.3c0,0,0,0,0,0C168.9,72.2,168.6,72,168.4,71.9z"/>
<path class="st7" d="M167.2,65.5c0.2-0.2,0.4-0.4,0.6-0.2c0.1,0.1,0.1,0.2,0,0.2S167.5,65.6,167.2,65.5z"/>
<path class="st7" d="M169.6,63.9c0.1,0,0.2,0,0.2,0.2c0,0.1-0.1,0.3-0.3,0.3c-0.1,0-0.2-0.1-0.2-0.2S169.5,64,169.6,63.9z"/>
<path class="st7" d="M169.1,64.2c0.1,0.3,0.4,0.3,0.3,0.5s-0.2,0.1-0.3,0S169.1,64.5,169.1,64.2z"/>
<path class="st7" d="M156.8,70.4c-0.2-0.1-0.1-0.4-0.4-0.4s-0.1-0.2-0.1-0.2c0-0.6,0-1.2,0-1.8c0-0.2,0-0.4,0.3-0.4s0.2,0.2,0.2,0.4
	L156.8,70.4z"/>
<path class="st9" d="M156.8,63.3c-0.1,0.2,0.2,0.6-0.2,0.6s-0.2-0.4-0.2-0.7c0-0.1,0-0.1,0-0.2c0-0.2,0-0.5,0.3-0.5
	c0.3,0,0.1,0.3,0.2,0.4C156.8,63.1,156.8,63.3,156.8,63.3z"/>
<path class="st7" d="M156.2,74.6c0.4,0.3,0.6,0.5,0.5,0.9c0,0.1-0.2,0.2-0.3,0.2c0,0-0.1,0-0.1,0C156,75.4,156.3,75,156.2,74.6z"/>
<path class="st7" d="M156.8,72.4c0,0.1,0,0.2-0.2,0.2s-0.4,0-0.4-0.3c0-0.1,0.1-0.2,0.2-0.2S156.8,72.2,156.8,72.4z"/>
<path class="st2" d="M62.2,79.9L62.2,79.9L62.2,79.9L62.2,79.9z"/>
<path class="st0" d="M109.6,72.1c0.2-0.6,0.2-0.6,0.9-0.5C110,71.5,110.2,72.3,109.6,72.1z"/>
<path class="st2" d="M211.6,61.8l0.2,0.1C211.7,62,211.6,61.9,211.6,61.8L211.6,61.8z"/>
<path class="st2" d="M89.6,72.1h0.8c-0.5,0.6-0.8,0.6-1,0H89.6z"/>
<path class="st5" d="M89.6,72.1h-0.2c-0.2,0-0.4,0.2-0.8,0.2c0.1-0.3,0.4-0.5,0.7-0.5C89.7,71.8,89.6,72,89.6,72.1z"/>
<path class="st2" d="M196.5,70.8L196.5,70.8L196.5,70.8L196.5,70.8z"/>
<path class="st2" d="M197.9,71.2L197.9,71.2l-0.1,0.1L197.9,71.2z"/>
<path class="st3" d="M98.2,72.4L98.2,72.4C98.2,72.2,98.2,72.3,98.2,72.4L98.2,72.4z"/>
<path class="st2" d="M178.9,66.7h0.1H178.9L178.9,66.7L178.9,66.7z"/>
<path class="st2" d="M178.9,66.7c-0.1,0-0.2,0-0.2-0.1l0.1-0.1C178.8,66.6,178.8,66.6,178.9,66.7L178.9,66.7z"/>
<path class="st2" d="M168.6,69L168.6,69L168.6,69L168.6,69z"/>
<rect x="33" y="48" class="st10" width="192" height="59"/>
</svg>
